<svg class="thumb" width="1000" height="1000" viewBox="0,0,600,600" xmlns="http://www.w3.org/2000/svg" xmlns:inkscape="http://www.inkscape.org/namespaces/inkscape" xmlns:sodipodi="http://sodipodi.sourceforge.net/DTD/sodipodi-0.dtd" xmlns:xlink="http://www.w3.org/1999/xlink" xmlns:ns1="http://www.inkscape.org/namespaces/inkscape" xmlns:sketch="http://www.bohemiancoding.com/sketch/ns">
  <defs></defs>
  <g transform="matrix(1.0243,0,0,1.0243,80.8002,24.0323)">
    <g transform="matrix(3.6143,0,0,3.6143,145.3277,259.8567)">
      <svg width="38.39999999999999" height="20.799999999999997" viewBox="30.6,33.1,38.39999999999999,20.799999999999997">
        <defs>
          <linearGradient x1="0" y1="0.5" x2="1" y2="0.5" id="linearGradientSkbfh1lrw4">
            <stop offset="0%" stop-color="#000000"></stop>
            <stop offset="100%" stop-color="#000000"></stop>
          </linearGradient>
        </defs>
        <g></g>
        <g></g>
        <g></g>
        <g></g>
        <g></g>
        <g></g>
        <g></g>
        <g></g>
        <g></g>
        <g></g>
        <g></g>
        <g></g>
        <g></g>
        <g></g>
        <g></g>
        <g></g>
        <g>
          <path d="M46.4,43.5h6.8c0,3,2.4,5.4,5.4,5.4c3,0,5.4-2.4,5.4-5.4s-2.4-5.4-5.4-5.4c-2.6,0-4.8,1.9-5.3,4.4h-7   c-0.5-2.5-2.6-4.4-5.3-4.4c-3,0-5.4,2.4-5.4,5.4s2.4,5.4,5.4,5.4C44,48.8,46.4,46.4,46.4,43.5z M41.3,47.8v-3.6l3,2.1   C43.5,47.2,42.5,47.7,41.3,47.8z M55.3,46.3l3-2.1v3.6C57.1,47.7,56.1,47.2,55.3,46.3z M58.9,47.8v-3.6l3,2.1   C61.1,47.2,60.1,47.7,58.9,47.8z M63,43.4c0,0.9-0.3,1.8-0.8,2.5l-3.4-2.3v-4.5C61.2,39.2,63,41.1,63,43.4z M58.4,39.1v4.5L55,45.9   c-0.5-0.7-0.8-1.6-0.8-2.5C54.2,41.1,56.1,39.2,58.4,39.1z M45.4,43.4c0,0.9-0.3,1.8-0.8,2.5l-3.4-2.3v-4.5   C43.6,39.2,45.4,41.1,45.4,43.4z M40.8,39.1v4.5l-3.4,2.3c-0.5-0.7-0.8-1.6-0.8-2.5C36.6,41.1,38.5,39.2,40.8,39.1z M37.7,46.3   l3-2.1v3.6C39.5,47.7,38.5,47.2,37.7,46.3z" stroke="none" fill="url('#linearGradientSkbfh1lrw4')" style=""></path>
        </g>
      </svg>
    </g>
    <g transform="matrix(3.6143,0,0,3.6143,158.6639,284.3636)">
      <svg width="19.220062669575917" height="33.79999999999999" viewBox="34.879937330424085,39.90000000000001,19.220062669575917,33.79999999999999">
        <defs>
          <linearGradient x1="0" y1="0.5" x2="1" y2="0.5" id="linearGradientSkbfh1lrwa">
            <stop offset="0%" stop-color="#000000"></stop>
            <stop offset="100%" stop-color="#000000"></stop>
          </linearGradient>
        </defs>
        <g></g>
        <g></g>
        <g></g>
        <g></g>
        <g></g>
        <g></g>
        <g></g>
        <g></g>
        <g></g>
        <g></g>
        <g></g>
        <g></g>
        <g></g>
        <g></g>
        <g></g>
        <g></g>
        <g>
          <path d="M48.1,65.1c0.5,0.6,1,0.5,1,0.5c0-0.1-0.4-0.1-0.8-0.6c-0.4-0.5-0.8-1.4-1.3-2.5c-0.1-0.3-0.3-0.6-0.5-0.9   c-0.1-0.1-0.3-0.3-0.5-0.4c-0.3-0.1-0.4,0-0.6-0.1c-0.6-0.1-1-0.7-1.5-1.3c-0.2-0.3-0.5-0.7-0.7-1c-0.1-0.1-0.1-0.2,0-0.3   c0.1-0.1,0.2-0.2,0.3-0.3c0.7-0.4,1.6-0.6,2.4-0.8c0.3,0,0.5-0.1,0.8-0.1l0.4-0.1l0.7-0.1c0-1.8,0-3.5,0-5c0-1.4-0.1-2.7-0.1-3.8   c-0.1-2.1-0.1-3.4-0.2-3.4c-0.1,0-0.2,1.3-0.2,3.4c0,1.1,0,2.3-0.1,3.8c0,1.3,0,2.8,0,4.4l0,0l0,0l-0.1,0l-0.4,0.1   c-0.3,0-0.5,0.1-0.8,0.1c-0.9,0.2-1.8,0.4-2.7,0.9c-0.2,0.1-0.4,0.3-0.6,0.6c-0.2,0.3-0.1,0.7,0,0.9c0.3,0.4,0.5,0.7,0.7,1.1   c0.2,0.3,0.5,0.6,0.8,0.9c0.3,0.3,0.7,0.5,1.1,0.6c0.5,0,0.5,0,0.8,0.3c0.2,0.2,0.3,0.4,0.4,0.6c-1.2,0.5-6.9,2.7-6.5,6.1   L48.1,65.1C48.1,65.1,48.1,65.1,48.1,65.1z" stroke="none" fill="url('#linearGradientSkbfh1lrwa')" style=""></path>
        </g>
      </svg>
    </g>
    <g transform="matrix(3.6143,0,0,3.6143,195.6639,284.3636)">
      <svg width="19.13048768957114" height="33.69999999999998" viewBox="45.399999999999984,39.800000000000004,19.13048768957114,33.69999999999998">
        <defs>
          <linearGradient x1="0" y1="0.5" x2="1" y2="0.5" id="linearGradientSkbfh1lrwg">
            <stop offset="0%" stop-color="#000000"></stop>
            <stop offset="100%" stop-color="#000000"></stop>
          </linearGradient>
        </defs>
        <g></g>
        <g></g>
        <g></g>
        <g></g>
        <g></g>
        <g></g>
        <g></g>
        <g></g>
        <g></g>
        <g></g>
        <g></g>
        <g></g>
        <g></g>
        <g></g>
        <g></g>
        <g></g>
        <g>
          <path d="M53.1,62.5c0.1-0.2,0.2-0.4,0.4-0.6c0.2-0.3,0.3-0.2,0.8-0.3c0.4-0.1,0.8-0.3,1.1-0.6c0.3-0.3,0.5-0.6,0.8-0.9   c0.3-0.4,0.5-0.6,0.7-1.1c0.1-0.2,0.2-0.6,0-0.9c-0.2-0.3-0.4-0.4-0.6-0.6c-0.8-0.5-1.8-0.7-2.7-0.9c-0.3,0-0.5-0.1-0.8-0.1   l-0.4-0.1l-0.1,0l0,0l0,0c0-1.6,0-3,0-4.4c0-1.4-0.1-2.7-0.1-3.8c-0.1-2.1-0.1-3.4-0.2-3.4s-0.2,1.3-0.2,3.4c0,1.1,0,2.3-0.1,3.8   c0,1.5,0,3.2,0,5l0.7,0.1l0.4,0.1c0.3,0,0.5,0.1,0.8,0.1c0.9,0.2,1.8,0.4,2.4,0.8c0.2,0.1,0.3,0.2,0.3,0.3c0.1,0.1,0.1,0.2,0,0.3   c-0.2,0.3-0.5,0.7-0.7,1c-0.5,0.6-0.9,1.3-1.5,1.3c-0.2,0-0.2,0-0.6,0.1c-0.2,0.1-0.4,0.3-0.5,0.4c-0.2,0.3-0.4,0.6-0.5,0.9   c-0.5,1.1-0.9,2-1.3,2.5c-0.4,0.6-0.8,0.6-0.8,0.6c0,0,0.5,0.1,1-0.5c0,0,0,0,0,0l8.1,3.5C60,65.2,54.2,62.9,53.1,62.5z" stroke="none" fill="url('#linearGradientSkbfh1lrwg')" style=""></path>
        </g>
      </svg>
    </g>
    <g transform="matrix(3.6143,0,0,3.6143,222.5069,163.314)">
      <svg width="13.00447571601876" height="12.6" viewBox="51.99776214199062,6.5,13.00447571601876,12.6">
        <defs>
          <linearGradient x1="0" y1="0.5" x2="1" y2="0.5" id="linearGradientSkbfh1lrwm">
            <stop offset="0%" stop-color="#000000"></stop>
            <stop offset="100%" stop-color="#000000"></stop>
          </linearGradient>
        </defs>
        <g></g>
        <g></g>
        <g></g>
        <g></g>
        <g></g>
        <g></g>
        <g></g>
        <g></g>
        <g></g>
        <g></g>
        <g></g>
        <g></g>
        <g></g>
        <g></g>
        <g></g>
        <g></g>
        <g>
          <ellipse cx="58.5" cy="12.8" rx="1.5" ry="1.3" stroke="none" fill="url('#linearGradientSkbfh1lrwm')" style=""></ellipse>
        </g>
      </svg>
    </g>
    <g transform="matrix(3.6143,0,0,3.6143,142.8925,204.8925)">
      <svg width="15.054039577474313" height="15.617908670205864" viewBox="30.18738177876299,17.62132181433546,15.054039577474313,15.617908670205864">
        <defs>
          <linearGradient x1="0" y1="0.5" x2="1" y2="0.5" id="linearGradientSkbfh1lrws">
            <stop offset="0%" stop-color="#000000"></stop>
            <stop offset="100%" stop-color="#000000"></stop>
          </linearGradient>
        </defs>
        <g></g>
        <g></g>
        <g></g>
        <g></g>
        <g></g>
        <g></g>
        <g></g>
        <g></g>
        <g></g>
        <g></g>
        <g></g>
        <g></g>
        <g></g>
        <g></g>
        <g></g>
        <g></g>
        <g>
          <path d="M40.1,25c-0.1,0,0,0.6-0.4,1.3c-0.1-0.2-0.4-0.4-0.7-0.5c-0.3-0.2-0.6-0.3-0.8-0.3c0,0,0-0.1,0-0.1   c-0.1-0.9-0.3-1.7-0.5-2.1c0.4-0.1,0.8,0,1.1,0.2c0.5,0.3,0.8,0.7,1,1.1C40,24.8,40.1,25.1,40.1,25c0,0,0.1-0.2,0-0.6   c-0.1-0.4-0.4-1-1-1.4c-0.6-0.4-1.7-0.6-2.6,0c-0.9,0.5-1.4,1.7-1.3,2.9c0.1,1.2,1.1,2.2,2.1,2.3c1,0.2,1.9-0.4,2.4-1   c0.5-0.6,0.5-1.2,0.5-1.6C40.3,25.2,40.2,25,40.1,25z M35.9,25.8c-0.1-0.9,0.3-1.8,1-2.2c0.2-0.1,0.3-0.2,0.5-0.3   c0,0.4,0,1.2,0.1,2.2c0,0,0,0.1,0,0.1c-0.2,0.1-0.5,0.3-0.7,0.6c-0.2,0.2-0.4,0.4-0.5,0.6C36.1,26.5,36,26.2,35.9,25.8z M37.5,27.6   c-0.3-0.1-0.5-0.2-0.8-0.4c0.2-0.1,0.4-0.3,0.6-0.5c0.1-0.1,0.2-0.3,0.3-0.4c0.1,0.6,0.2,1.1,0.3,1.3   C37.8,27.6,37.6,27.6,37.5,27.6z M38.3,27.6c0-0.3,0-0.8,0-1.4c0.1,0.1,0.3,0.2,0.4,0.3c0.3,0.2,0.6,0.3,0.8,0.3   c-0.1,0.1-0.1,0.2-0.2,0.3C39.1,27.2,38.7,27.5,38.3,27.6z" stroke="none" fill="url('#linearGradientSkbfh1lrws')" style=""></path>
        </g>
      </svg>
    </g>
    <g transform="matrix(3.6143,0,0,3.6143,238.6997,205.8925)">
      <svg width="14.510903852410195" height="15.370047942297628" viewBox="55.7890961475898,18.61037775741374,14.510903852410195,15.370047942297628">
        <defs>
          <linearGradient x1="0" y1="0.5" x2="1" y2="0.5" id="linearGradientSkbfh1lrwy">
            <stop offset="0%" stop-color="#000000"></stop>
            <stop offset="100%" stop-color="#000000"></stop>
          </linearGradient>
        </defs>
        <g></g>
        <g></g>
        <g></g>
        <g></g>
        <g></g>
        <g></g>
        <g></g>
        <g></g>
        <g></g>
        <g></g>
        <g></g>
        <g></g>
        <g></g>
        <g></g>
        <g></g>
        <g></g>
        <g>
          <path d="M62.5,28.9c1,0.3,1.9-0.3,2.2-0.8c0.4-0.5,0.5-1.1,0.6-1.5c0-0.4-0.1-0.6-0.1-0.6c-0.1,0-0.1,0.5-0.4,1.2   c-0.1-0.2-0.3-0.4-0.6-0.5c-0.2-0.2-0.5-0.3-0.7-0.3c0,0,0-0.1,0-0.1c0-0.9-0.1-1.7-0.3-2.1c0.4,0,0.7,0.1,0.9,0.3   c0.5,0.3,0.7,0.8,0.8,1.1c0.1,0.3,0.2,0.5,0.2,0.5c0,0,0.1-0.2,0.1-0.6c0-0.4-0.2-0.9-0.7-1.4c-0.5-0.5-1.5-0.7-2.4-0.2   c-0.8,0.5-1.4,1.5-1.3,2.6C60.8,27.6,61.5,28.7,62.5,28.9z M62.7,28.3c-0.2-0.1-0.4-0.2-0.6-0.4c0.2-0.1,0.4-0.2,0.6-0.4   c0.1-0.1,0.2-0.2,0.2-0.3c0,0.5,0.1,0.9,0.2,1.2C62.9,28.4,62.8,28.4,62.7,28.3z M64.5,27.6c0,0.1-0.1,0.1-0.1,0.2   c-0.2,0.2-0.6,0.4-0.9,0.5c0.1-0.3,0.1-0.7,0.1-1.3c0.1,0.1,0.2,0.2,0.3,0.2C64,27.5,64.3,27.6,64.5,27.6z M62.5,24.5   c0.1-0.1,0.3-0.2,0.5-0.2c-0.1,0.4-0.1,1.2-0.1,2c0,0,0,0.1,0,0.1c-0.2,0.1-0.4,0.2-0.7,0.5c-0.2,0.2-0.3,0.3-0.4,0.5   c-0.1-0.3-0.2-0.6-0.2-0.9C61.5,25.7,61.9,24.9,62.5,24.5z" stroke="none" fill="url('#linearGradientSkbfh1lrwy')" style=""></path>
        </g>
      </svg>
    </g>
    <g transform="matrix(3.6143,0,0,3.6143,165.8925,200.8925)">
      <svg width="15.800000000000004" height="15.560647842033557" viewBox="36.3,16.75904600363636,15.800000000000004,15.560647842033557">
        <defs>
          <linearGradient x1="0" y1="0.5" x2="1" y2="0.5" id="linearGradientSkbfh1lrw14">
            <stop offset="0%" stop-color="#000000"></stop>
            <stop offset="100%" stop-color="#000000"></stop>
          </linearGradient>
        </defs>
        <g></g>
        <g></g>
        <g></g>
        <g></g>
        <g></g>
        <g></g>
        <g></g>
        <g></g>
        <g></g>
        <g></g>
        <g></g>
        <g></g>
        <g></g>
        <g></g>
        <g></g>
        <g></g>
        <g>
          <path d="M47,24.5c-0.1,0-0.1,0.2-0.2,0.6c-0.1,0.2-0.2,0.4-0.4,0.7c-0.1-0.2-0.4-0.5-0.8-0.7c-0.3-0.2-0.7-0.3-0.9-0.4   c0,0,0-0.1,0-0.1c0-0.9-0.1-1.8-0.2-2.2c0.5,0,0.9,0.1,1.3,0.3c0.6,0.3,0.9,0.8,1,1.2C46.9,24.3,46.9,24.5,47,24.5   c0,0,0.1-0.2,0-0.7c-0.1-0.4-0.4-1-1-1.5c-0.6-0.5-1.7-0.7-2.7-0.4c-1,0.3-2,1.4-2,2.7c0,1.3,1.1,2.3,2.1,2.6   c1.1,0.3,2.1,0,2.7-0.5c0.6-0.5,0.9-1.1,1-1.6C47.1,24.8,47,24.5,47,24.5z M43.5,22.6c0.2-0.1,0.4-0.1,0.6-0.1   c-0.1,0.4-0.2,1.2-0.1,2.2c0,0,0,0.1,0,0.1c-0.2,0.1-0.6,0.2-0.9,0.4c-0.3,0.2-0.6,0.4-0.7,0.6c-0.2-0.3-0.4-0.7-0.4-1.1   C42,23.7,42.7,22.9,43.5,22.6z M43.6,26.7c-0.3-0.1-0.6-0.3-0.9-0.5c0.2-0.1,0.5-0.2,0.8-0.4c0.2-0.1,0.4-0.3,0.5-0.4   c0,0.6,0.1,1.2,0.2,1.5C44,26.8,43.8,26.7,43.6,26.7z M45.8,26.4c-0.3,0.2-0.8,0.4-1.3,0.4c0.1-0.3,0.1-0.8,0.1-1.5   c0.2,0.1,0.3,0.3,0.6,0.4c0.4,0.2,0.7,0.4,0.9,0.4C46,26.2,45.9,26.3,45.8,26.4z" stroke="none" fill="url('#linearGradientSkbfh1lrw14')" style=""></path>
        </g>
      </svg>
    </g>
    <g transform="matrix(3.6143,0,0,3.6143,214.8925,204.8925)">
      <svg width="15.672519319910862" height="15.548629978973953" viewBox="49.971925124533584,17.60339593877126,15.672519319910862,15.548629978973953">
        <defs>
          <linearGradient x1="0" y1="0.5" x2="1" y2="0.5" id="linearGradientSkbfh1lrw1a">
            <stop offset="0%" stop-color="#000000"></stop>
            <stop offset="100%" stop-color="#000000"></stop>
          </linearGradient>
        </defs>
        <g></g>
        <g></g>
        <g></g>
        <g></g>
        <g></g>
        <g></g>
        <g></g>
        <g></g>
        <g></g>
        <g></g>
        <g></g>
        <g></g>
        <g></g>
        <g></g>
        <g></g>
        <g></g>
        <g>
          <path d="M57.2,28.1c1.1,0.2,2.1-0.2,2.6-0.8c0.6-0.6,0.8-1.2,0.8-1.6c0-0.4-0.1-0.7-0.1-0.7c-0.1,0-0.1,0.2-0.1,0.6   c-0.1,0.2-0.2,0.5-0.3,0.7c-0.2-0.2-0.5-0.4-0.9-0.6c-0.4-0.2-0.7-0.3-0.9-0.3c0,0,0-0.1,0-0.1c-0.1-0.9-0.3-1.7-0.4-2.1   c0.5,0,1,0,1.3,0.2c0.6,0.3,1,0.7,1.1,1.1c0.2,0.3,0.2,0.6,0.3,0.6c0,0,0.1-0.2,0-0.7c-0.1-0.4-0.5-1-1.2-1.4   c-0.7-0.4-1.7-0.6-2.7-0.1c-1,0.4-1.9,1.6-1.7,2.9C55,27,56.1,27.9,57.2,28.1z M57.3,27.5c-0.3-0.1-0.7-0.2-0.9-0.4   c0.2-0.1,0.5-0.3,0.7-0.5c0.2-0.2,0.4-0.3,0.5-0.5c0.1,0.6,0.2,1.2,0.3,1.5C57.7,27.5,57.5,27.5,57.3,27.5z M58.9,26.3   c0.4,0.2,0.7,0.3,1,0.3c-0.1,0.1-0.2,0.2-0.3,0.3c-0.3,0.3-0.7,0.4-1.2,0.5c0-0.3,0-0.9,0-1.5C58.4,26.1,58.6,26.2,58.9,26.3z    M56.8,23.4c0.2-0.1,0.4-0.2,0.6-0.2c-0.1,0.4,0,1.2,0.1,2.2c0,0,0,0.1,0,0.1c-0.2,0.1-0.5,0.3-0.8,0.5c-0.3,0.2-0.5,0.5-0.6,0.7   c-0.3-0.3-0.5-0.7-0.5-1.1C55.4,24.6,56.1,23.8,56.8,23.4z" stroke="none" fill="url('#linearGradientSkbfh1lrw1a')" style=""></path>
        </g>
      </svg>
    </g>
    <g transform="matrix(3.6143,0,0,3.6143,189.0854,199.0854)">
      <svg width="16.15078408150839" height="16.148623541377656" viewBox="42.89366036293605,16.23673469387755,16.15078408150839,16.148623541377656">
        <defs>
          <linearGradient x1="0" y1="0.5" x2="1" y2="0.5" id="linearGradientSkbfh1lrw1g">
            <stop offset="0%" stop-color="#000000"></stop>
            <stop offset="100%" stop-color="#000000"></stop>
          </linearGradient>
        </defs>
        <g></g>
        <g></g>
        <g></g>
        <g></g>
        <g></g>
        <g></g>
        <g></g>
        <g></g>
        <g></g>
        <g></g>
        <g></g>
        <g></g>
        <g></g>
        <g></g>
        <g></g>
        <g></g>
        <g>
          <path d="M50,27.2c1.1,0.4,2.2,0.1,2.9-0.4c0.7-0.5,1-1.2,1.1-1.6c0.1-0.5,0-0.7,0-0.7c-0.1,0-0.1,0.2-0.2,0.6   c-0.1,0.2-0.2,0.5-0.5,0.7c-0.1-0.2-0.4-0.5-0.9-0.8c-0.4-0.3-0.7-0.4-1-0.5c0,0,0-0.1,0-0.1c0-1,0-1.9-0.1-2.4   c0.5,0,1,0.2,1.4,0.4c0.6,0.4,0.9,0.9,1.1,1.3c0.1,0.4,0.2,0.6,0.2,0.6c0,0,0.1-0.2,0-0.7c-0.1-0.5-0.4-1.1-1-1.7   c-0.7-0.5-1.8-0.9-2.9-0.5c-1.1,0.3-2.2,1.4-2.2,2.8C47.8,25.8,48.9,26.9,50,27.2z M50.2,26.6c-0.4-0.1-0.7-0.3-1-0.6   c0.2-0.1,0.6-0.2,0.9-0.4c0.3-0.2,0.5-0.3,0.6-0.5c0,0.7,0.1,1.3,0.1,1.7C50.6,26.8,50.4,26.7,50.2,26.6z M52,25.6   c0.4,0.3,0.8,0.4,1,0.5c-0.1,0.1-0.3,0.2-0.4,0.3c-0.4,0.2-0.9,0.4-1.4,0.4c0.1-0.3,0.2-0.9,0.2-1.7C51.6,25.3,51.8,25.4,52,25.6z    M50.3,22.2c0.2-0.1,0.5-0.1,0.7-0.1c-0.1,0.4-0.2,1.3-0.2,2.4c0,0,0,0.1,0,0.1c-0.3,0.1-0.6,0.2-1,0.4c-0.4,0.2-0.6,0.5-0.8,0.7   c-0.2-0.4-0.4-0.8-0.4-1.3C48.6,23.3,49.4,22.4,50.3,22.2z" stroke="none" fill="url('#linearGradientSkbfh1lrw1g')" style=""></path>
        </g>
      </svg>
    </g>
    <g transform="matrix(3.6143,0,0,3.6143,45.9337,144.705)">
      <svg width="93.1" height="97.56595648100573" viewBox="3.1999999999999993,1.234043518994266,93.1,97.56595648100573">
        <defs>
          <linearGradient x1="0" y1="0.5" x2="1" y2="0.5" id="linearGradientSkbfh1lrw1m">
            <stop offset="0%" stop-color="#000000"></stop>
            <stop offset="100%" stop-color="#000000"></stop>
          </linearGradient>
        </defs>
        <g></g>
        <g></g>
        <g></g>
        <g></g>
        <g></g>
        <g></g>
        <g></g>
        <g></g>
        <g></g>
        <g></g>
        <g></g>
        <g></g>
        <g></g>
        <g></g>
        <g></g>
        <g></g>
        <g>
          <path d="M84.4,77.1L72,58.5c3.4,3.8,19.3,5.6,19.3,5.6s-25.7-7.9-23.9-30.3c0.5-6.3-0.7-11.1-2.6-14.7c0,0,0.1,0,0.1-0.1   c0-0.1,0-0.1,0-0.2c0-0.2-0.1-0.3-0.1-0.4c-0.5-1-1.2-1.8-1.8-2.6c-0.3-0.4-0.7-0.8-1-1.2c-0.2-0.3-0.5-0.6-0.7-0.8l0.6,0   c0.3,0,0.6,0,0.9,0c0.6,0,1.2,0,1.8-0.1c0.6-0.1,1.2-0.2,1.7-0.6c0.3-0.2,0.5-0.4,0.6-0.7c0-0.2,0.1-0.4,0-0.5   c-0.1-0.2-0.2-0.3-0.4-0.3c-0.6-0.2-1.2-0.2-1.7-0.2c-0.6,0-1.1,0.1-1.6,0.2c-0.8,0.1-1.6,0.3-2.3,0.5c0.8-0.5,1.5-1.1,2.1-1.8   c0.7-0.8,1.3-1.7,1.3-2.7c0-0.5,0-1-0.5-1.3c-0.5-0.2-0.9,0.1-1.3,0.3c-0.7,0.4-1.2,1-1.7,1.4c-0.9,1-1.5,1.8-1.9,2.4   c-0.4,0.6-0.6,0.9-0.6,0.9c0,0,0.1-0.1,0.2-0.2c0.1-0.1,0.3-0.4,0.5-0.7c0.4-0.6,1-1.4,2-2.4c0.5-0.5,1-1,1.7-1.4   c0.3-0.2,0.8-0.4,1.1-0.3C63.9,6.6,64,7.1,64,7.5c0,0.9-0.6,1.8-1.3,2.6C62,10.9,61,11.6,60,12.2l0.1,0.2c1-0.2,2-0.4,3-0.6   c0.5-0.1,1.1-0.1,1.6-0.2c0.5,0,1.1,0,1.6,0.1c0.5,0.2,0.2,0.8-0.2,1.1c-0.5,0.3-1,0.4-1.6,0.5c-0.6,0.1-1.2,0.1-1.8,0.1   c-0.3,0-0.6,0-0.9,0l-0.5,0l-0.9-0.1l0.8,0.9l0.5,0.6c0.3,0.4,0.6,0.8,1,1.2c0.6,0.8,1.3,1.6,1.8,2.5c0,0.1,0.1,0.2,0.1,0.3   c0,0.1,0,0-0.1,0c-0.2,0-0.5-0.1-0.7-0.3c-0.5-0.2-0.9-0.5-1.4-0.8c-0.4-0.3-0.8-0.7-1.2-1c-0.2-0.2-0.4-0.4-0.5-0.6L60.6,16   l-0.1-0.1l-0.1-0.2c-0.1-0.2-0.3-0.6-0.4-0.9l-0.2,1.4L59.7,17c-0.1,0.5-0.2,1.1-0.3,1.6c-0.1,0.5-0.2,1.1-0.4,1.6   c-0.1,0.2-0.2,0.5-0.3,0.6c0,0.1-0.2-0.1-0.3-0.3c-0.6-1.4-0.7-3.1-0.3-4.6l-0.3-0.1c-0.4,0.7-0.9,1.5-1.4,2.1   c-0.3,0.3-0.5,0.7-0.8,0.9c-0.3,0.3-0.7,0.6-0.8,0.3c-0.1-0.3-0.1-0.7-0.1-1.1c0-0.4,0.2-0.8,0.4-1.1c0.2-0.4,0.4-0.7,0.7-1   c0.1-0.1,0.3-0.3,0.4-0.4l0.1-0.1l0.2-0.1l0.5-0.4c-0.6-0.1-1.2-0.1-1.8-0.2c-0.5-0.1-0.9-0.1-1.4-0.2c-0.5-0.1-0.9-0.2-1.3-0.3   c-0.2,0-0.4-0.1-0.6-0.2c-0.1,0-0.2-0.1-0.3-0.1c0,0,0,0,0,0c0,0,0.3-0.1,0.5-0.2c0.2,0,0.4-0.1,0.6-0.1c0.4-0.1,0.9-0.1,1.3-0.1   c0.8,0,1.7,0.1,2.5,0.2l0.1-0.3c-1-0.5-1.9-1-2.8-1.5c-0.4-0.3-0.9-0.5-1.2-0.8c-0.2-0.2-0.4-0.3-0.5-0.5c-0.1-0.2-0.3-0.4-0.2-0.5   c0.3-0.2,0.8-0.2,1.3-0.1c0.4,0.1,0.9,0.2,1.3,0.4c0.4,0.2,0.8,0.3,1.2,0.5c0.2,0.1,0.4,0.2,0.6,0.3c0.3,0.1,0.6,0.3,0.9,0.5   c-0.2-0.3-0.3-0.6-0.5-0.9c-0.1-0.2-0.2-0.4-0.3-0.6c-0.2-0.4-0.4-0.7-0.5-1.1c-0.3-0.7-0.6-1.4-0.7-2.1c0-0.2,0-0.3,0.1-0.4   c0.1-0.1,0.3,0,0.4,0c0.3,0.1,0.5,0.3,0.8,0.5c0.4,0.4,0.7,0.8,1,1.2c0.5,0.8,0.7,1.5,0.9,2c0.2,0.5,0.2,0.7,0.2,0.7s0-0.3-0.2-0.7   c-0.1-0.5-0.4-1.2-0.8-2.1c-0.2-0.4-0.5-0.9-1-1.3C56,7,55.7,6.8,55.4,6.7c-0.2-0.1-0.3-0.1-0.5,0c-0.2,0.1-0.2,0.4-0.2,0.5   c0.1,0.7,0.4,1.4,0.7,2.1c0.1,0.2,0.2,0.4,0.3,0.6c-3.2-1.8-5.8-2.3-5.8-2.3s-19.3,3.8-17.6,26.2C33.9,56.2,8.2,64.1,8.2,64.1   s15.9-1.7,19.3-5.6L15.1,77.1c0,0,8.8-5.1,11.1-8.1c-1.7,2.9-7.9,14.5-4.5,24.8l19.6-13.6c0.6,1.1,1,2.3,1.4,3.3   c0.6,1.5,1.1,2.8,1.9,3.9c0.6,0.8,1.3,1.2,2.2,1.3c0.1,0,0.2,0,0.3,0c1.1,0,2.2-0.6,2.7-1c0.6,0.4,1.7,1.1,3,1   c0.9-0.1,1.6-0.5,2.2-1.3c0.8-1.1,1.4-2.5,1.9-3.9c0.4-1,0.8-2.1,1.4-3.3l19.6,13.6c3.3-10.3-2.8-21.8-4.5-24.8   C75.6,72,84.4,77.1,84.4,77.1z M34.5,23.4c0,0,18.4-6.2,30.8,0.7l1,6.6c0,0-23.7-6.4-32.8-0.1L34.5,23.4z M55.9,83.1   c-0.6,1.5-1,2.7-1.8,3.7c-0.4,0.5-0.9,0.8-1.5,0.9c-1.3,0.1-2.6-1-2.6-1l-0.3-0.3l-0.3,0.3c-0.4,0.3-1.5,1.1-2.6,1   c-0.6-0.1-1.1-0.4-1.5-0.9c-0.8-1-1.2-2.2-1.8-3.7c-0.8-2.1-1.7-4.5-3.7-6.9c-3.3-3.9-4.1-14.4-3.8-17c0.3-2.2-1.1-3.5-2.5-4.9   c-0.6-0.6-1.3-1.3-1.8-2c-1-1.5,1.4-9.2,3.2-13.9c0.9-0.4,4.5-1.8,7.8-2.8c3.4-1,4.9-4.1,5.4-5.2h3.1c0.4,1,2,4.1,5.4,5.2   c3.3,1,6.9,2.4,7.8,2.8c1.8,4.7,4.2,12.4,3.2,13.9c-0.5,0.7-1.1,1.4-1.8,2c-1.4,1.3-2.8,2.7-2.5,4.9c0.4,2.6-0.5,13.1-3.8,17   C57.7,78.6,56.7,81,55.9,83.1z" stroke="none" fill="url('#linearGradientSkbfh1lrw1m')" style=""></path>
        </g>
      </svg>
    </g>
    <g transform="matrix(3.6143,0,0,3.6143,170.628,371.314)">
      <svg width="24.52013869515089" height="12.810943647472158" viewBox="37.68928571428572,64.19999999999999,24.52013869515089,12.810943647472158">
        <defs>
          <linearGradient x1="0" y1="0.5" x2="1" y2="0.5" id="linearGradientSkbfh1lrw1s">
            <stop offset="0%" stop-color="#000000"></stop>
            <stop offset="100%" stop-color="#000000"></stop>
          </linearGradient>
        </defs>
        <g></g>
        <g></g>
        <g></g>
        <g></g>
        <g></g>
        <g></g>
        <g></g>
        <g></g>
        <g></g>
        <g></g>
        <g></g>
        <g></g>
        <g></g>
        <g></g>
        <g></g>
        <g></g>
        <g>
          <path d="M55.1,70.1c-1.3,0.5-3.1,1.1-5.2,1.2c-2.1,0.1-3.9-0.4-5.2-1c-1.3-0.6-1.9-1.1-2-1c-0.1,0.1,0.5,0.8,1.8,1.5   c1.2,0.7,3.2,1.3,5.4,1.2c2.2-0.1,4.1-0.8,5.4-1.5c1.3-0.7,2-1.2,1.9-1.3C57.2,69.2,56.4,69.6,55.1,70.1z" stroke="none" fill="url('#linearGradientSkbfh1lrw1s')" style=""></path>
        </g>
      </svg>
    </g>
    <g transform="matrix(3.6143,0,0,3.6143,159.0854,254.1212)">
      <svg width="16.333783537276716" height="11.654508497187479" viewBox="34.6,31.945491502812523,16.333783537276716,11.654508497187479">
        <defs>
          <linearGradient x1="0" y1="0.5" x2="1" y2="0.5" id="linearGradientSkbfh1lrw1y">
            <stop offset="0%" stop-color="#000000"></stop>
            <stop offset="100%" stop-color="#000000"></stop>
          </linearGradient>
        </defs>
        <g></g>
        <g></g>
        <g></g>
        <g></g>
        <g></g>
        <g></g>
        <g></g>
        <g></g>
        <g></g>
        <g></g>
        <g></g>
        <g></g>
        <g></g>
        <g></g>
        <g></g>
        <g></g>
        <g>
          <path d="M45.1,38.1c0.5,0.2,0.7,0.5,0.8,0.5c0.1,0,0-0.5-0.6-0.9C44.8,37.3,44,37,43,37c-1.9-0.2-3.4,0.2-3.4,0.4   c0,0.2,1.5,0.2,3.3,0.3C43.8,37.7,44.6,37.9,45.1,38.1z" stroke="none" fill="url('#linearGradientSkbfh1lrw1y')" style=""></path>
        </g>
      </svg>
    </g>
    <g transform="matrix(3.6143,0,0,3.6143,209.0854,254.1212)">
      <svg width="16.33378353727671" height="11.639725963102556" viewBox="48.76621646272329,31.88013701844872,16.33378353727671,11.639725963102556">
        <defs>
          <linearGradient x1="0" y1="0.5" x2="1" y2="0.5" id="linearGradientSkbfh1lrw24">
            <stop offset="0%" stop-color="#000000"></stop>
            <stop offset="100%" stop-color="#000000"></stop>
          </linearGradient>
        </defs>
        <g></g>
        <g></g>
        <g></g>
        <g></g>
        <g></g>
        <g></g>
        <g></g>
        <g></g>
        <g></g>
        <g></g>
        <g></g>
        <g></g>
        <g></g>
        <g></g>
        <g></g>
        <g></g>
        <g>
          <path d="M54.6,38.1c0.5-0.2,1.3-0.4,2.2-0.5c1.8-0.2,3.3-0.1,3.3-0.3c0-0.2-1.5-0.5-3.4-0.4c-0.9,0.1-1.8,0.3-2.3,0.7   c-0.6,0.4-0.7,0.9-0.6,0.9C53.9,38.6,54.1,38.3,54.6,38.1z" stroke="none" fill="url('#linearGradientSkbfh1lrw24')" style=""></path>
        </g>
      </svg>
    </g>
    <g transform="matrix(3.6143,0,0,3.6143,183.2782,381.6639)">
      <svg width="17.815314371469235" height="19.05184" viewBox="40.88468562853076,67.24816,17.815314371469235,19.05184">
        <defs>
          <linearGradient x1="0" y1="0.5" x2="1" y2="0.5" id="linearGradientSkbfh1lrw2a">
            <stop offset="0%" stop-color="#000000"></stop>
            <stop offset="100%" stop-color="#000000"></stop>
          </linearGradient>
        </defs>
        <g></g>
        <g></g>
        <g></g>
        <g></g>
        <g></g>
        <g></g>
        <g></g>
        <g></g>
        <g></g>
        <g></g>
        <g></g>
        <g></g>
        <g></g>
        <g></g>
        <g></g>
        <g></g>
        <g>
          <path d="M49.8,73.1c-2.2,0-3.8-1-3.9-0.8c-0.1,0.1,0.3,0.4,0.9,0.8l3,8.2l2.8-8.1c0,0,0.1,0,0.1-0.1c0.7-0.4,1-0.7,1-0.8   C53.6,72,52,73.1,49.8,73.1z" stroke="none" fill="url('#linearGradientSkbfh1lrw2a')" style=""></path>
        </g>
      </svg>
    </g>
    <g transform="matrix(0.9965,0,0,0.9743,54.5495,0.9546)">
      <svg width="310.0008111984599" height="269.88949465764887" viewBox="11.665938249129479,31.721595342351122,310.0008111984599,269.88949465764887">
        <defs>
          <linearGradient x1="0" y1="0.5" x2="1" y2="0.5" id="linearGradientSkbfh1lrw2g">
            <stop offset="0%" stop-color="#000000"></stop>
            <stop offset="100%" stop-color="#000000"></stop>
          </linearGradient>
        </defs>
        <g></g>
        <g></g>
        <g></g>
        <g></g>
        <g></g>
        <g></g>
        <g></g>
        <g></g>
        <g></g>
        <g></g>
        <g></g>
        <g></g>
        <g></g>
        <g></g>
        <g></g>
        <g></g>
        <g>
          <path d="m 144.4303,71.312299 c -4.44599,-28.442305 -27.77574,-7.998774 -27.77574,-7.998774 0,0 17.1107,-35.547882 37.10764,-24.442918 19.99693,11.111631 96.20525,224.412263 96.20525,224.412263 0,0 68.65614,5.77911 66.65645,16.66411 -1.99969,10.885 -99.98467,16.66411 -149.97701,16.66411 -49.99233,0 -149.31044,-5.77911 -149.977005,-16.66411 -0.666564,-10.885 83.32056,-16.66411 83.32056,-16.66411 0,0 48.879175,-163.528265 44.439855,-191.970571 z m 12.998,111.536231 c 0,0 -6.66564,15.83091 -6.66564,15.83091 0,0 -17.89059,0.83321 -17.89059,0.83321 0,0 14.89105,11.49823 14.89105,11.49823 0,0 -2.8329,15.49763 -2.8329,15.49763 0,0 13.16465,-10.33175 13.16465,-10.33175 0,0 16.99739,10.2251 16.99739,10.2251 0,0 -8.83198,-16.94407 -8.83198,-17.39067 0,-0.43993 11.83152,-7.66549 11.83152,-7.66549 0,0 -15.16434,-3.16618 -15.16434,-3.16618 0,0 -5.49916,-15.33099 -5.49916,-15.33099 z m 48.29927,44.10658 c 0,0 -4.41933,10.33175 -4.41933,10.33175 0,0 -10.49839,-0.16665 -10.49839,-0.16665 0,0 7.25222,7.25223 7.25222,7.25223 0,0 -4.7526,12.91135 -4.7526,12.91135 0,0 10.99831,-8.2454 10.99831,-8.2454 0,0 9.41856,4.99923 9.41856,4.99923 0,0 -2.91955,-9.25191 -2.91955,-9.25191 0,0 7.99877,-5.99908 7.99877,-5.99908 0,0 -8.83198,-2.49962 -9.49854,-2.49962 -0.66657,0 -3.57945,-9.3319 -3.57945,-9.3319 z m -30.41534,-93.87228 c 0,0 -4.91258,10.74502 -4.91258,10.74502 0,0 -11.41825,-0.08 -11.41825,-0.08 0,0 7.25222,6.74563 7.25222,6.74563 0,0 -5.83244,9.5852 -5.49916,9.5852 0.33329,0 11.16496,-3.58612 11.16496,-3.58612 0,0 7.83213,7.25223 7.83213,6.91894 0,-0.33328 0.91319,-10.33175 0.91319,-10.33175 0,0 10.41841,-6.99892 10.41841,-6.99892 0,0 -11.49824,-1.9997 -11.49824,-1.9997 0,0 -4.25268,-10.99831 -4.25268,-10.99831 z" style="" fill="url('#linearGradientSkbfh1lrw2g')" fill-opacity="1" stroke="none"></path>
        </g>
      </svg>
    </g>
    <g transform="matrix(0.5324,0.0843,-0.0843,0.5324,196.8516,88.0208)">
      <svg width="81.964" height="81.726" viewBox="9.018,8.98,81.964,81.726">
        <defs>
          <linearGradient x1="0" y1="0.5" x2="1" y2="0.5" id="linearGradientSkbfh1lrw2m">
            <stop offset="0%" stop-color="#ffffff"></stop>
            <stop offset="100%" stop-color="#ffffff"></stop>
          </linearGradient>
        </defs>
        <g></g>
        <g></g>
        <g></g>
        <g></g>
        <g></g>
        <g></g>
        <g></g>
        <g></g>
        <g></g>
        <g></g>
        <g></g>
        <g></g>
        <g></g>
        <g></g>
        <g></g>
        <g></g>
        <g>
          <path d="M71.686,85.706L69,60l16.982-17.541L62,39L50.001,13.98L38,39l-23.982,3.284L31,60l-2.692,25.676L49.98,72   c0.017,0,0.028,0,0.049,0L71.686,85.706z" stroke="none" fill="url('#linearGradientSkbfh1lrw2m')" style=""></path>
        </g>
      </svg>
    </g>
    <g transform="matrix(0.5361,0.0563,-0.0563,0.5361,227.5691,179.0049)">
      <svg width="81.964" height="81.726" viewBox="9.018,8.98,81.964,81.726">
        <defs>
          <linearGradient x1="0" y1="0.5" x2="1" y2="0.5" id="linearGradientSkbfh1lrw2s">
            <stop offset="0%" stop-color="#ffffff"></stop>
            <stop offset="100%" stop-color="#ffffff"></stop>
          </linearGradient>
        </defs>
        <g></g>
        <g></g>
        <g></g>
        <g></g>
        <g></g>
        <g></g>
        <g></g>
        <g></g>
        <g></g>
        <g></g>
        <g></g>
        <g></g>
        <g></g>
        <g></g>
        <g></g>
        <g></g>
        <g>
          <path d="M71.686,85.706L69,60l16.982-17.541L62,39L50.001,13.98L38,39l-23.982,3.284L31,60l-2.692,25.676L49.98,72   c0.017,0,0.028,0,0.049,0L71.686,85.706z" stroke="none" fill="url('#linearGradientSkbfh1lrw2s')" style=""></path>
        </g>
      </svg>
    </g>
    <g transform="matrix(0.7123,-0.0498,0.0498,0.7123,169.1345,141.169)">
      <svg width="81.964" height="81.726" viewBox="9.018,8.98,81.964,81.726">
        <defs>
          <linearGradient x1="0" y1="0.5" x2="1" y2="0.5" id="linearGradientSkbfh1lrw2y">
            <stop offset="0%" stop-color="#ffffff"></stop>
            <stop offset="100%" stop-color="#ffffff"></stop>
          </linearGradient>
        </defs>
        <g></g>
        <g></g>
        <g></g>
        <g></g>
        <g></g>
        <g></g>
        <g></g>
        <g></g>
        <g></g>
        <g></g>
        <g></g>
        <g></g>
        <g></g>
        <g></g>
        <g></g>
        <g></g>
        <g>
          <path d="M71.686,85.706L69,60l16.982-17.541L62,39L50.001,13.98L38,39l-23.982,3.284L31,60l-2.692,25.676L49.98,72   c0.017,0,0.028,0,0.049,0L71.686,85.706z" stroke="none" fill="url('#linearGradientSkbfh1lrw2y')" style=""></path>
        </g>
      </svg>
    </g>
    <g transform="matrix(0.5,0,0,0.5,73.0454,485.75)">
      <svg width="563.818359375" height="185" style="overflow: visible;">
        <defs>
          <linearGradient x1="0" y1="0.5" x2="1" y2="0.5" id="linearGradientSkbfh1lrw36">
            <stop offset="0%" stop-color="#000000"></stop>
            <stop offset="100%" stop-color="#000000"></stop>
          </linearGradient>
        </defs>
        <g transform="matrix(1,0,0,1,0,93.75)">
          <path d="M-49.65000000000003 0L-49.65000000000003-88.82L-37.300000000000026-88.82L-37.300000000000026-70.9L-37.690000000000026-62.01L-37.64000000000003-61.96Q-36.81000000000003-63.13 -35.71000000000003-64.21Q-34.61000000000003-65.28 -33.22000000000003-66.14Q-31.830000000000027-66.99 -30.150000000000027-67.48Q-28.46000000000003-67.97 -26.46000000000003-67.97L-26.46000000000003-67.97Q-25.430000000000028-67.97 -23.99000000000003-67.77Q-22.550000000000026-67.58 -21.010000000000026-66.8Q-19.480000000000025-66.02 -17.940000000000026-64.48Q-16.400000000000027-62.94 -15.200000000000031-60.25Q-14.010000000000026-57.57 -13.250000000000028-53.56Q-12.49000000000003-49.56 -12.49000000000003-43.85L-12.49000000000003-43.85L-12.49000000000003-23.49Q-12.49000000000003-17.77 -13.250000000000028-13.77Q-14.010000000000026-9.77 -15.230000000000025-7.06Q-16.45000000000003-4.35 -18.010000000000026-2.78Q-19.57000000000003-1.22 -21.190000000000026-0.44Q-22.800000000000026 0.34 -24.310000000000027 0.56Q-25.82000000000003 0.78 -26.950000000000028 0.78L-26.950000000000028 0.78Q-29.290000000000028 0.78 -31.17000000000003 0.2Q-33.050000000000026-0.39 -34.49000000000002-1.39Q-35.93000000000003-2.39 -37.03000000000003-3.66Q-38.130000000000024-4.93 -38.96000000000003-6.25L-38.96000000000003-6.25L-39.98000000000003 0L-49.65000000000003 0ZM-37.300000000000026-54.44L-37.300000000000026-13.62Q-36.910000000000025-12.7 -36.35000000000003-11.82Q-35.79000000000003-10.94 -35.050000000000026-10.28Q-34.32000000000003-9.62 -33.34000000000003-9.2Q-32.37000000000003-8.79 -31.150000000000027-8.79L-31.150000000000027-8.79Q-29.78000000000003-8.79 -28.66000000000003-9.3Q-27.53000000000003-9.81 -26.700000000000028-11.16Q-25.87000000000003-12.5 -25.41000000000003-14.89Q-24.950000000000028-17.29 -24.950000000000028-21.04L-24.950000000000028-21.04L-24.950000000000028-46.78Q-24.950000000000028-50.54 -25.41000000000003-52.91Q-25.87000000000003-55.27 -26.680000000000028-56.64Q-27.48000000000003-58.01 -28.610000000000028-58.5Q-29.73000000000003-58.98 -31.10000000000003-58.98L-31.10000000000003-58.98Q-33.39000000000003-58.98 -34.880000000000024-57.64Q-36.37000000000003-56.3 -37.300000000000026-54.44L-37.300000000000026-54.44ZM 6.831015624999972 0L 6.831015624999972-88.82L 19.19101562499997-88.82L 19.19101562499997 0L 6.831015624999972 0ZM 46.670468749999934-76.86L 46.670468749999934-76.86Q 43.25046874999994-76.86  41.270468749999935-78.91Q 39.300468749999936-80.96  39.300468749999936-84.91L 39.300468749999936-84.91Q 39.300468749999936-87.11  39.810468749999934-88.6Q 40.32046874999993-90.09  41.270468749999935-90.99Q 42.230468749999936-91.89  43.590468749999935-92.31Q 44.96046874999993-92.72  46.72046874999994-92.72L 46.72046874999994-92.72Q 50.380468749999935-92.72  52.28046874999994-90.87Q 54.19046874999994-89.01  54.19046874999994-84.91L 54.19046874999994-84.91Q 54.19046874999994-81.1  52.26046874999994-78.98Q 50.33046874999994-76.86  46.670468749999934-76.86ZM 40.270468749999935 0L 40.270468749999935-67.24L 52.630468749999935-67.24L 52.630468749999935 0L 40.270468749999935 0ZM 70.8799218749999-14.06L 70.8799218749999-14.06Q 70.8799218749999-16.26  71.2999218749999-18.31Q 71.7099218749999-20.36  72.0999218749999-21.58L 72.0999218749999-21.58L 80.7899218749999-21.58Q 80.7899218749999-17.92  81.1599218749999-15.45Q 81.5299218749999-12.99  82.3599218749999-11.52Q 83.1899218749999-10.06  84.5799218749999-9.42Q 85.9699218749999-8.79  87.9699218749999-8.79L 87.9699218749999-8.79Q 90.7499218749999-8.79  92.01992187499991-10.35Q 93.2899218749999-11.91  93.2899218749999-13.96L 93.2899218749999-13.96Q 93.2899218749999-15.04  92.9999218749999-16.02Q 92.7099218749999-16.99  92.1699218749999-17.99Q 91.6299218749999-18.99  90.8499218749999-20.02Q 90.06992187499989-21.04  89.0899218749999-22.27L 89.0899218749999-22.27L 80.0599218749999-32.91Q 78.2999218749999-35.11  76.6699218749999-37.38Q 75.0299218749999-39.65  73.7899218749999-42.07Q 72.5399218749999-44.48  71.7799218749999-47.12Q 71.0299218749999-49.76  71.0299218749999-52.69L 71.0299218749999-52.69Q 71.0299218749999-56.59  72.3699218749999-59.47Q 73.7099218749999-62.35  75.9799218749999-64.26Q 78.2499218749999-66.16  81.2299218749999-67.09Q 84.2099218749999-68.02  87.5299218749999-68.02L 87.5299218749999-68.02Q 91.1899218749999-68.02  94.1199218749999-67.14Q 97.0499218749999-66.26  99.1499218749999-64.5Q 101.2499218749999-62.74  102.3799218749999-60.13Q 103.4999218749999-57.52  103.4999218749999-54.05L 103.4999218749999-54.05Q 103.4999218749999-51.71  103.0799218749999-49.51Q 102.6699218749999-47.31  102.2799218749999-45.75L 102.2799218749999-45.75L 93.7299218749999-45.75Q 93.6799218749999-49.07  93.4399218749999-51.56Q 93.1999218749999-54.05  92.5399218749999-55.69Q 91.8799218749999-57.32  90.7299218749999-58.15Q 89.5799218749999-58.98  87.7299218749999-58.98L 87.7299218749999-58.98Q 86.1199218749999-58.98  85.0399218749999-58.47Q 83.9699218749999-57.96  83.3099218749999-57.13Q 82.6499218749999-56.3  82.3799218749999-55.27Q 82.1099218749999-54.25  82.1099218749999-53.17L 82.1099218749999-53.17Q 82.1099218749999-50.83  83.2299218749999-48.83Q 84.3599218749999-46.83  86.2099218749999-44.48L 86.2099218749999-44.48L 96.0799218749999-32.91Q 97.1499218749999-31.59  98.56992187499989-29.71Q 99.9799218749999-27.83  101.2499218749999-25.56Q 102.51992187499991-23.29  103.3999218749999-20.61Q 104.2799218749999-17.92  104.2799218749999-14.99L 104.2799218749999-14.99Q 104.2799218749999-11.43  103.1599218749999-8.52Q 102.0299218749999-5.62  99.8399218749999-3.56Q 97.6399218749999-1.51  94.4399218749999-0.39Q 91.23992187499991 0.73  87.1399218749999 0.73L 87.1399218749999 0.73Q 83.76992187499991 0.73  80.7899218749999-0.02Q 77.8099218749999-0.78  75.6199218749999-2.51Q 73.4199218749999-4.25  72.1499218749999-7.08Q 70.8799218749999-9.91  70.8799218749999-14.06ZM 119.35843749999988-14.06L 119.35843749999988-14.06Q 119.35843749999988-16.26  119.77843749999988-18.31Q 120.18843749999989-20.36  120.5784374999999-21.58L 120.5784374999999-21.58L 129.2684374999999-21.58Q 129.2684374999999-17.92  129.6384374999999-15.45Q 130.0084374999999-12.99  130.83843749999988-11.52Q 131.6684374999999-10.06  133.05843749999988-9.42Q 134.4484374999999-8.79  136.4484374999999-8.79L 136.4484374999999-8.79Q 139.22843749999987-8.79  140.49843749999988-10.35Q 141.7684374999999-11.91  141.7684374999999-13.96L 141.7684374999999-13.96Q 141.7684374999999-15.04  141.47843749999987-16.02Q 141.18843749999988-16.99  140.6484374999999-17.99Q 140.1084374999999-18.99  139.3284374999999-20.02Q 138.5484374999999-21.04  137.5684374999999-22.27L 137.5684374999999-22.27L 128.53843749999987-32.91Q 126.77843749999988-35.11  125.14843749999989-37.38Q 123.50843749999989-39.65  122.26843749999989-42.07Q 121.01843749999989-44.48  120.25843749999989-47.12Q 119.50843749999989-49.76  119.50843749999989-52.69L 119.50843749999989-52.69Q 119.50843749999989-56.59  120.84843749999989-59.47Q 122.18843749999989-62.35  124.45843749999989-64.26Q 126.72843749999988-66.16  129.7084374999999-67.09Q 132.68843749999988-68.02  136.0084374999999-68.02L 136.0084374999999-68.02Q 139.6684374999999-68.02  142.59843749999987-67.14Q 145.52843749999988-66.26  147.62843749999988-64.5Q 149.72843749999987-62.74  150.8584374999999-60.13Q 151.97843749999987-57.52  151.97843749999987-54.05L 151.97843749999987-54.05Q 151.97843749999987-51.71  151.55843749999988-49.51Q 151.1484374999999-47.31  150.7584374999999-45.75L 150.7584374999999-45.75L 142.2084374999999-45.75Q 142.15843749999988-49.07  141.9184374999999-51.56Q 141.6784374999999-54.05  141.0184374999999-55.69Q 140.3584374999999-57.32  139.2084374999999-58.15Q 138.05843749999988-58.98  136.2084374999999-58.98L 136.2084374999999-58.98Q 134.59843749999987-58.98  133.5184374999999-58.47Q 132.4484374999999-57.96  131.78843749999987-57.13Q 131.12843749999988-56.3  130.8584374999999-55.27Q 130.58843749999988-54.25  130.58843749999988-53.17L 130.58843749999988-53.17Q 130.58843749999988-50.83  131.7084374999999-48.83Q 132.83843749999988-46.83  134.68843749999988-44.48L 134.68843749999988-44.48L 144.55843749999988-32.91Q 145.62843749999988-31.59  147.0484374999999-29.71Q 148.4584374999999-27.83  149.72843749999987-25.56Q 150.99843749999988-23.29  151.87843749999988-20.61Q 152.7584374999999-17.92  152.7584374999999-14.99L 152.7584374999999-14.99Q 152.7584374999999-11.43  151.6384374999999-8.52Q 150.5084374999999-5.62  148.3184374999999-3.56Q 146.11843749999989-1.51  142.9184374999999-0.39Q 139.71843749999988 0.73  135.61843749999989 0.73L 135.61843749999989 0.73Q 132.24843749999988 0.73  129.2684374999999-0.02Q 126.28843749999989-0.78  124.09843749999989-2.51Q 121.89843749999989-4.25  120.62843749999989-7.08Q 119.35843749999988-9.91  119.35843749999988-14.06ZM 172.13695312499988 0L 172.13695312499988-58.45L 166.32695312499987-58.45L 166.32695312499987-67.24L 172.13695312499988-67.24L 172.13695312499988-72.07Q 172.13695312499988-77.54  173.25695312499988-80.98Q 174.3769531249999-84.42  176.35695312499988-86.35Q 178.3369531249999-88.28  180.9969531249999-88.96Q 183.6569531249999-89.65  186.7369531249999-89.65L 186.7369531249999-89.65Q 187.6169531249999-89.65  188.70695312499987-89.55Q 189.8069531249999-89.45  190.9069531249999-89.23Q 192.00695312499988-89.01  193.0569531249999-88.72Q 194.10695312499988-88.43  194.9369531249999-87.99L 194.9369531249999-87.99L 194.9369531249999-79.3Q 192.88695312499988-79.83  190.34695312499989-79.83L 190.34695312499989-79.83Q 189.1269531249999-79.83  188.0269531249999-79.44Q 186.9269531249999-79.05  186.09695312499989-78.15Q 185.26695312499987-77.25  184.7769531249999-75.76Q 184.2969531249999-74.27  184.2969531249999-72.07L 184.2969531249999-72.07L 184.2969531249999-67.24L 193.6169531249999-67.24L 193.6169531249999-58.45L 184.2969531249999-58.45L 184.2969531249999 0L 172.13695312499988 0ZM 208.6550781249999-15.72L 208.6550781249999-67.24L 221.00507812499993-67.24L 221.00507812499993-16.7Q 221.00507812499993-12.26  222.3750781249999-10.52Q 223.73507812499992-8.79  226.3750781249999-8.79L 226.3750781249999-8.79Q 228.23507812499992-8.79  229.98507812499992-9.81Q 231.7450781249999-10.84  233.16507812499992-12.74L 233.16507812499992-12.74L 233.16507812499992-67.24L 245.51507812499992-67.24L 245.51507812499992 0L 236.09507812499993 0L 234.8750781249999-7.18L 234.82507812499992-7.18Q 233.35507812499992-4.88  231.72507812499992-3.34Q 230.0850781249999-1.81  228.3050781249999-0.9Q 226.5250781249999 0  224.66507812499992 0.39Q 222.8150781249999 0.78  220.95507812499991 0.78L 220.95507812499991 0.78Q 215.04507812499992 0.78  211.84507812499993-3.32Q 208.6550781249999-7.42  208.6550781249999-15.72L 208.6550781249999-15.72ZM 266.59859374999996 0L 266.59859374999996-88.82L 278.9585937499999-88.82L 278.9585937499999 0L 266.59859374999996 0ZM 335.674765625 0L 324.594765625-67.24L 336.364765625-67.24L 341.194765625-30.81L 342.364765625-17.19L 342.754765625-17.19L 344.224765625-30.81L 350.664765625-67.24L 361.064765625-67.24L 367.704765625-30.81L 369.514765625-17.19L 369.904765625-17.19L 370.734765625-30.81L 374.984765625-67.24L 386.504765625-67.24L 375.614765625 0L 364.244765625 0L 357.264765625-37.4L 355.694765625-47.71L 355.304765625-47.71L 353.894765625-37.4L 347.544765625 0L 335.674765625 0ZM 409.15679687500005-76.86L 409.15679687500005-76.86Q 405.73679687500004-76.86  403.7567968750001-78.91Q 401.78679687500005-80.96  401.78679687500005-84.91L 401.78679687500005-84.91Q 401.78679687500005-87.11  402.29679687500004-88.6Q 402.80679687500003-90.09  403.7567968750001-90.99Q 404.71679687500006-91.89  406.07679687500007-92.31Q 407.4467968750001-92.72  409.20679687500007-92.72L 409.20679687500007-92.72Q 412.86679687500003-92.72  414.76679687500007-90.87Q 416.67679687500004-89.01  416.67679687500004-84.91L 416.67679687500004-84.91Q 416.67679687500004-81.1  414.7467968750001-78.98Q 412.8167968750001-76.86  409.15679687500005-76.86ZM 402.7567968750001 0L 402.7567968750001-67.24L 415.11679687500003-67.24L 415.11679687500003 0L 402.7567968750001 0ZM 430.72625 0L 430.72625-6.15L 449.57625-57.86L 432.34625-57.86L 432.34625-67.24L 462.80625-67.24L 462.80625-61.08L 443.91625-9.38L 462.90625-9.38L 462.90625 0L 430.72625 0ZM 487.61242187499994 0.73L 487.61242187499994 0.73Q 484.48242187499994 0.73  482.0624218749999-0.51Q 479.65242187499996-1.76  477.99242187499993-3.91Q 476.33242187499997-6.05  475.47242187499995-9.01Q 474.62242187499993-11.96  474.62242187499993-15.43L 474.62242187499993-15.43Q 474.62242187499993-19.58  475.64242187499997-22.8Q 476.67242187499994-26.03  478.65242187499996-28.61Q 480.62242187499993-31.2  483.55242187499994-33.33Q 486.48242187499994-35.45  490.34242187499996-37.35L 490.34242187499996-37.35Q 492.1924218749999-38.28  494.512421875-39.23Q 496.83242187499997-40.19  498.64242187499997-40.87L 498.64242187499997-40.87L 498.64242187499997-49.76Q 498.64242187499997-51.71  498.49242187499993-53.39Q 498.35242187499995-55.08  497.79242187499995-56.32Q 497.22242187499995-57.57  496.10242187499995-58.28Q 494.98242187499994-58.98  493.02242187499996-58.98L 493.02242187499996-58.98Q 491.71242187499996-58.98  490.46242187499996-58.5Q 489.22242187499995-58.01  488.262421875-56.84Q 487.3124218749999-55.66  486.7524218749999-53.71Q 486.1924218749999-51.76  486.1924218749999-48.88L 486.1924218749999-48.88L 486.1924218749999-45.95L 476.77242187499996-45.95Q 476.33242187499997-47.85  476.11242187499994-49.44Q 475.89242187499997-51.03  475.89242187499997-52.59L 475.89242187499997-52.59Q 475.89242187499997-56.35  477.18242187499993-59.23Q 478.47242187499995-62.11  480.79242187499995-64.06Q 483.11242187499994-66.02  486.34242187499996-67.02Q 489.5624218749999-68.02  493.42242187499994-68.02L 493.42242187499994-68.02Q 498.4424218749999-68.02  501.77242187499996-66.92Q 505.09242187499996-65.82  507.0624218749999-63.62Q 509.04242187499995-61.43  509.85242187499995-58.11Q 510.65242187499996-54.79  510.65242187499996-50.34L 510.65242187499996-50.34L 510.65242187499996 0L 501.47242187499995 0L 500.59242187499996-5.76Q 498.59242187499996-2.88  495.2524218749999-1.07Q 491.90242187499996 0.73  487.61242187499994 0.73ZM 493.0724218749999-8.79L 493.0724218749999-8.79Q 494.64242187499997-8.79  496.1324218749999-9.59Q 497.61242187499994-10.4  498.64242187499997-11.57L 498.64242187499997-11.57L 498.64242187499997-32.62Q 497.66242187499995-32.23  496.4424218749999-31.69Q 495.22242187499995-31.15  493.8124218749999-30.27L 493.8124218749999-30.27Q 492.49242187499993-29.44  491.22242187499995-28.27Q 489.9524218749999-27.1  488.9524218749999-25.49Q 487.95242187499997-23.88  487.34242187499996-21.85Q 486.73242187499994-19.82  486.73242187499994-17.33L 486.73242187499994-17.33Q 486.73242187499994-13.48  488.24242187499993-11.13Q 489.7524218749999-8.79  493.0724218749999-8.79ZM 531.449609375 0L 531.449609375-67.24L 540.479609375-67.24L 541.559609375-60.4Q 543.609609375-64.21  546.269609375-66.11Q 548.929609375-68.02  551.709609375-68.02L 551.709609375-68.02Q 557.029609375-68.02  559.569609375-64.75Q 562.109609375-61.47  562.109609375-54.93L 562.109609375-54.93Q 562.109609375-54.1  561.989609375-52.95Q 561.869609375-51.81  561.649609375-50.56Q 561.429609375-49.32  561.109609375-48.07Q 560.789609375-46.83  560.449609375-45.8L 560.449609375-45.8L 551.859609375-45.8L 551.859609375-52.05Q 551.859609375-54.1  551.589609375-55.42Q 551.319609375-56.74  550.879609375-57.54Q 550.439609375-58.35  549.859609375-58.67Q 549.269609375-58.98  548.589609375-58.98L 548.589609375-58.98Q 547.119609375-58.98  545.879609375-58.03Q 544.629609375-57.08  543.799609375-55.37L 543.799609375-55.37L 543.799609375 0L 531.449609375 0ZM 590.8161718749999 0.78L 590.8161718749999 0.78Q 589.6961718749999 0.78  588.1761718749999 0.56Q 586.6661718749999 0.34  585.0561718749999-0.44Q 583.4461718749999-1.22  581.8761718749998-2.78Q 580.3161718749999-4.35  579.0961718749999-7.06Q 577.8761718749998-9.77  577.1161718749998-13.77Q 576.3661718749998-17.77  576.3661718749998-23.49L 576.3661718749998-23.49L 576.3661718749998-44.82Q 576.3661718749998-50.49  577.1661718749999-54.39Q 577.9761718749999-58.3  579.2861718749999-60.86Q 580.6061718749999-63.43  582.2461718749998-64.87Q 583.8761718749998-66.31  585.5161718749999-66.99Q 587.1561718749999-67.68  588.6461718749999-67.82Q 590.1261718749998-67.97  591.1061718749999-67.97L 591.1061718749999-67.97Q 592.9161718749999-67.97  594.5261718749999-67.48Q 596.1361718749998-66.99  597.4561718749999-66.19Q 598.7761718749999-65.38  599.7961718749999-64.38Q 600.8261718749999-63.38  601.5061718749998-62.35L 601.5061718749998-62.35L 601.5561718749999-62.4L 601.1661718749999-70.9L 601.1661718749999-88.82L 613.4661718749999-88.82L 613.4661718749999 0L 603.8561718749999 0L 602.7761718749999-6.25Q 601.9461718749999-4.93  600.8761718749998-3.66Q 599.7961718749999-2.39  598.3361718749999-1.39Q 596.8661718749998-0.39  595.0161718749999 0.2Q 593.1561718749999 0.78  590.8161718749999 0.78ZM 595.0161718749999-8.79L 595.0161718749999-8.79Q 596.2361718749999-8.79  597.1861718749999-9.2Q 598.1361718749998-9.62  598.8961718749999-10.28Q 599.6561718749999-10.94  600.2161718749999-11.82Q 600.7761718749999-12.7  601.1661718749999-13.62L 601.1661718749999-13.62L 601.1661718749999-54.05Q 600.2361718749999-56.1  598.6961718749999-57.54Q 597.1661718749999-58.98  594.9661718749999-58.98L 594.9661718749999-58.98Q 593.5961718749999-58.98  592.4761718749999-58.5Q 591.3561718749999-58.01  590.5261718749999-56.67Q 589.6961718749999-55.32  589.2261718749999-52.95Q 588.7661718749999-50.59  588.7661718749999-46.83L 588.7661718749999-46.83L 588.7661718749999-21.04Q 588.7661718749999-17.29  589.2261718749999-14.89Q 589.6961718749999-12.5  590.5261718749999-11.16Q 591.3561718749999-9.81  592.4961718749998-9.3Q 593.6461718749999-8.79  595.0161718749999-8.79Z" data-textpath="blissful wizard" data-text-anchor="middle" data-font-size="100" data-letterspacing="8" data-side="left" data-offset="0.5" data-dx="0" data-dy="0" data-xmlspace="preserve" data-href="" data-font="Fjalla One" data-font-src="/Content/clientfonts/fjallaone.woff" data-font-scale="contain" transform="translate(0,0)" data-x="0" data-y="0" fill="url('#linearGradientSkbfh1lrw36')"></path>
        </g>
      </svg>
    </g>
  </g>
</svg>