<svg class="thumb" width="1000" height="1000" viewBox="0,0,600,600" xmlns="http://www.w3.org/2000/svg" xmlns:inkscape="http://www.inkscape.org/namespaces/inkscape" xmlns:sodipodi="http://sodipodi.sourceforge.net/DTD/sodipodi-0.dtd" xmlns:xlink="http://www.w3.org/1999/xlink" xmlns:ns1="http://www.inkscape.org/namespaces/inkscape" xmlns:sketch="http://www.bohemiancoding.com/sketch/ns">
  <defs></defs>
  <g transform="matrix(1.1406,0,0,1.1406,109.3019,23.3548)">
    <g transform="matrix(3.6143,0,0,3.6143,100.3277,259.8567)">
      <svg width="38.39999999999999" height="20.799999999999997" viewBox="30.6,33.1,38.39999999999999,20.799999999999997">
        <defs>
          <linearGradient x1="0" y1="0.5" x2="1" y2="0.5" id="linearGradientSkbfh01d54">
            <stop offset="0%" stop-color="#000000"></stop>
            <stop offset="100%" stop-color="#000000"></stop>
          </linearGradient>
        </defs>
        <g></g>
        <g></g>
        <g></g>
        <g></g>
        <g></g>
        <g></g>
        <g></g>
        <g></g>
        <g></g>
        <g></g>
        <g></g>
        <g></g>
        <g></g>
        <g></g>
        <g>
          <path d="M46.4,43.5h6.8c0,3,2.4,5.4,5.4,5.4c3,0,5.4-2.4,5.4-5.4s-2.4-5.4-5.4-5.4c-2.6,0-4.8,1.9-5.3,4.4h-7   c-0.5-2.5-2.6-4.4-5.3-4.4c-3,0-5.4,2.4-5.4,5.4s2.4,5.4,5.4,5.4C44,48.8,46.4,46.4,46.4,43.5z M41.3,47.8v-3.6l3,2.1   C43.5,47.2,42.5,47.7,41.3,47.8z M55.3,46.3l3-2.1v3.6C57.1,47.7,56.1,47.2,55.3,46.3z M58.9,47.8v-3.6l3,2.1   C61.1,47.2,60.1,47.7,58.9,47.8z M63,43.4c0,0.9-0.3,1.8-0.8,2.5l-3.4-2.3v-4.5C61.2,39.2,63,41.1,63,43.4z M58.4,39.1v4.5L55,45.9   c-0.5-0.7-0.8-1.6-0.8-2.5C54.2,41.1,56.1,39.2,58.4,39.1z M45.4,43.4c0,0.9-0.3,1.8-0.8,2.5l-3.4-2.3v-4.5   C43.6,39.2,45.4,41.1,45.4,43.4z M40.8,39.1v4.5l-3.4,2.3c-0.5-0.7-0.8-1.6-0.8-2.5C36.6,41.1,38.5,39.2,40.8,39.1z M37.7,46.3   l3-2.1v3.6C39.5,47.7,38.5,47.2,37.7,46.3z" stroke="none" fill="url('#linearGradientSkbfh01d54')" style=""></path>
        </g>
      </svg>
    </g>
    <g transform="matrix(3.6143,0,0,3.6143,113.6639,284.3636)">
      <svg width="19.220062669575917" height="33.79999999999999" viewBox="34.879937330424085,39.90000000000001,19.220062669575917,33.79999999999999">
        <defs>
          <linearGradient x1="0" y1="0.5" x2="1" y2="0.5" id="linearGradientSkbfh01d5a">
            <stop offset="0%" stop-color="#000000"></stop>
            <stop offset="100%" stop-color="#000000"></stop>
          </linearGradient>
        </defs>
        <g></g>
        <g></g>
        <g></g>
        <g></g>
        <g></g>
        <g></g>
        <g></g>
        <g></g>
        <g></g>
        <g></g>
        <g></g>
        <g></g>
        <g></g>
        <g></g>
        <g>
          <path d="M48.1,65.1c0.5,0.6,1,0.5,1,0.5c0-0.1-0.4-0.1-0.8-0.6c-0.4-0.5-0.8-1.4-1.3-2.5c-0.1-0.3-0.3-0.6-0.5-0.9   c-0.1-0.1-0.3-0.3-0.5-0.4c-0.3-0.1-0.4,0-0.6-0.1c-0.6-0.1-1-0.7-1.5-1.3c-0.2-0.3-0.5-0.7-0.7-1c-0.1-0.1-0.1-0.2,0-0.3   c0.1-0.1,0.2-0.2,0.3-0.3c0.7-0.4,1.6-0.6,2.4-0.8c0.3,0,0.5-0.1,0.8-0.1l0.4-0.1l0.7-0.1c0-1.8,0-3.5,0-5c0-1.4-0.1-2.7-0.1-3.8   c-0.1-2.1-0.1-3.4-0.2-3.4c-0.1,0-0.2,1.3-0.2,3.4c0,1.1,0,2.3-0.1,3.8c0,1.3,0,2.8,0,4.4l0,0l0,0l-0.1,0l-0.4,0.1   c-0.3,0-0.5,0.1-0.8,0.1c-0.9,0.2-1.8,0.4-2.7,0.9c-0.2,0.1-0.4,0.3-0.6,0.6c-0.2,0.3-0.1,0.7,0,0.9c0.3,0.4,0.5,0.7,0.7,1.1   c0.2,0.3,0.5,0.6,0.8,0.9c0.3,0.3,0.7,0.5,1.1,0.6c0.5,0,0.5,0,0.8,0.3c0.2,0.2,0.3,0.4,0.4,0.6c-1.2,0.5-6.9,2.7-6.5,6.1   L48.1,65.1C48.1,65.1,48.1,65.1,48.1,65.1z" stroke="none" fill="url('#linearGradientSkbfh01d5a')" style=""></path>
        </g>
      </svg>
    </g>
    <g transform="matrix(3.6143,0,0,3.6143,150.6639,284.3636)">
      <svg width="19.13048768957114" height="33.69999999999998" viewBox="45.399999999999984,39.800000000000004,19.13048768957114,33.69999999999998">
        <defs>
          <linearGradient x1="0" y1="0.5" x2="1" y2="0.5" id="linearGradientSkbfh01d5g">
            <stop offset="0%" stop-color="#000000"></stop>
            <stop offset="100%" stop-color="#000000"></stop>
          </linearGradient>
        </defs>
        <g></g>
        <g></g>
        <g></g>
        <g></g>
        <g></g>
        <g></g>
        <g></g>
        <g></g>
        <g></g>
        <g></g>
        <g></g>
        <g></g>
        <g></g>
        <g></g>
        <g>
          <path d="M53.1,62.5c0.1-0.2,0.2-0.4,0.4-0.6c0.2-0.3,0.3-0.2,0.8-0.3c0.4-0.1,0.8-0.3,1.1-0.6c0.3-0.3,0.5-0.6,0.8-0.9   c0.3-0.4,0.5-0.6,0.7-1.1c0.1-0.2,0.2-0.6,0-0.9c-0.2-0.3-0.4-0.4-0.6-0.6c-0.8-0.5-1.8-0.7-2.7-0.9c-0.3,0-0.5-0.1-0.8-0.1   l-0.4-0.1l-0.1,0l0,0l0,0c0-1.6,0-3,0-4.4c0-1.4-0.1-2.7-0.1-3.8c-0.1-2.1-0.1-3.4-0.2-3.4s-0.2,1.3-0.2,3.4c0,1.1,0,2.3-0.1,3.8   c0,1.5,0,3.2,0,5l0.7,0.1l0.4,0.1c0.3,0,0.5,0.1,0.8,0.1c0.9,0.2,1.8,0.4,2.4,0.8c0.2,0.1,0.3,0.2,0.3,0.3c0.1,0.1,0.1,0.2,0,0.3   c-0.2,0.3-0.5,0.7-0.7,1c-0.5,0.6-0.9,1.3-1.5,1.3c-0.2,0-0.2,0-0.6,0.1c-0.2,0.1-0.4,0.3-0.5,0.4c-0.2,0.3-0.4,0.6-0.5,0.9   c-0.5,1.1-0.9,2-1.3,2.5c-0.4,0.6-0.8,0.6-0.8,0.6c0,0,0.5,0.1,1-0.5c0,0,0,0,0,0l8.1,3.5C60,65.2,54.2,62.9,53.1,62.5z" stroke="none" fill="url('#linearGradientSkbfh01d5g')" style=""></path>
        </g>
      </svg>
    </g>
    <g transform="matrix(3.6143,0,0,3.6143,177.5069,163.314)">
      <svg width="13.00447571601876" height="12.6" viewBox="51.99776214199062,6.5,13.00447571601876,12.6">
        <defs>
          <linearGradient x1="0" y1="0.5" x2="1" y2="0.5" id="linearGradientSkbfh01d5m">
            <stop offset="0%" stop-color="#000000"></stop>
            <stop offset="100%" stop-color="#000000"></stop>
          </linearGradient>
        </defs>
        <g></g>
        <g></g>
        <g></g>
        <g></g>
        <g></g>
        <g></g>
        <g></g>
        <g></g>
        <g></g>
        <g></g>
        <g></g>
        <g></g>
        <g></g>
        <g></g>
        <g>
          <ellipse cx="58.5" cy="12.8" rx="1.5" ry="1.3" stroke="none" fill="url('#linearGradientSkbfh01d5m')" style=""></ellipse>
        </g>
      </svg>
    </g>
    <g transform="matrix(3.6143,0,0,3.6143,97.8925,204.8925)">
      <svg width="15.054039577474313" height="15.617908670205864" viewBox="30.18738177876299,17.62132181433546,15.054039577474313,15.617908670205864">
        <defs>
          <linearGradient x1="0" y1="0.5" x2="1" y2="0.5" id="linearGradientSkbfh01d5s">
            <stop offset="0%" stop-color="#000000"></stop>
            <stop offset="100%" stop-color="#000000"></stop>
          </linearGradient>
        </defs>
        <g></g>
        <g></g>
        <g></g>
        <g></g>
        <g></g>
        <g></g>
        <g></g>
        <g></g>
        <g></g>
        <g></g>
        <g></g>
        <g></g>
        <g></g>
        <g></g>
        <g>
          <path d="M40.1,25c-0.1,0,0,0.6-0.4,1.3c-0.1-0.2-0.4-0.4-0.7-0.5c-0.3-0.2-0.6-0.3-0.8-0.3c0,0,0-0.1,0-0.1   c-0.1-0.9-0.3-1.7-0.5-2.1c0.4-0.1,0.8,0,1.1,0.2c0.5,0.3,0.8,0.7,1,1.1C40,24.8,40.1,25.1,40.1,25c0,0,0.1-0.2,0-0.6   c-0.1-0.4-0.4-1-1-1.4c-0.6-0.4-1.7-0.6-2.6,0c-0.9,0.5-1.4,1.7-1.3,2.9c0.1,1.2,1.1,2.2,2.1,2.3c1,0.2,1.9-0.4,2.4-1   c0.5-0.6,0.5-1.2,0.5-1.6C40.3,25.2,40.2,25,40.1,25z M35.9,25.8c-0.1-0.9,0.3-1.8,1-2.2c0.2-0.1,0.3-0.2,0.5-0.3   c0,0.4,0,1.2,0.1,2.2c0,0,0,0.1,0,0.1c-0.2,0.1-0.5,0.3-0.7,0.6c-0.2,0.2-0.4,0.4-0.5,0.6C36.1,26.5,36,26.2,35.9,25.8z M37.5,27.6   c-0.3-0.1-0.5-0.2-0.8-0.4c0.2-0.1,0.4-0.3,0.6-0.5c0.1-0.1,0.2-0.3,0.3-0.4c0.1,0.6,0.2,1.1,0.3,1.3   C37.8,27.6,37.6,27.6,37.5,27.6z M38.3,27.6c0-0.3,0-0.8,0-1.4c0.1,0.1,0.3,0.2,0.4,0.3c0.3,0.2,0.6,0.3,0.8,0.3   c-0.1,0.1-0.1,0.2-0.2,0.3C39.1,27.2,38.7,27.5,38.3,27.6z" stroke="none" fill="url('#linearGradientSkbfh01d5s')" style=""></path>
        </g>
      </svg>
    </g>
    <g transform="matrix(3.6143,0,0,3.6143,193.6997,205.8925)">
      <svg width="14.510903852410195" height="15.370047942297628" viewBox="55.7890961475898,18.61037775741374,14.510903852410195,15.370047942297628">
        <defs>
          <linearGradient x1="0" y1="0.5" x2="1" y2="0.5" id="linearGradientSkbfh01d5y">
            <stop offset="0%" stop-color="#000000"></stop>
            <stop offset="100%" stop-color="#000000"></stop>
          </linearGradient>
        </defs>
        <g></g>
        <g></g>
        <g></g>
        <g></g>
        <g></g>
        <g></g>
        <g></g>
        <g></g>
        <g></g>
        <g></g>
        <g></g>
        <g></g>
        <g></g>
        <g></g>
        <g>
          <path d="M62.5,28.9c1,0.3,1.9-0.3,2.2-0.8c0.4-0.5,0.5-1.1,0.6-1.5c0-0.4-0.1-0.6-0.1-0.6c-0.1,0-0.1,0.5-0.4,1.2   c-0.1-0.2-0.3-0.4-0.6-0.5c-0.2-0.2-0.5-0.3-0.7-0.3c0,0,0-0.1,0-0.1c0-0.9-0.1-1.7-0.3-2.1c0.4,0,0.7,0.1,0.9,0.3   c0.5,0.3,0.7,0.8,0.8,1.1c0.1,0.3,0.2,0.5,0.2,0.5c0,0,0.1-0.2,0.1-0.6c0-0.4-0.2-0.9-0.7-1.4c-0.5-0.5-1.5-0.7-2.4-0.2   c-0.8,0.5-1.4,1.5-1.3,2.6C60.8,27.6,61.5,28.7,62.5,28.9z M62.7,28.3c-0.2-0.1-0.4-0.2-0.6-0.4c0.2-0.1,0.4-0.2,0.6-0.4   c0.1-0.1,0.2-0.2,0.2-0.3c0,0.5,0.1,0.9,0.2,1.2C62.9,28.4,62.8,28.4,62.7,28.3z M64.5,27.6c0,0.1-0.1,0.1-0.1,0.2   c-0.2,0.2-0.6,0.4-0.9,0.5c0.1-0.3,0.1-0.7,0.1-1.3c0.1,0.1,0.2,0.2,0.3,0.2C64,27.5,64.3,27.6,64.5,27.6z M62.5,24.5   c0.1-0.1,0.3-0.2,0.5-0.2c-0.1,0.4-0.1,1.2-0.1,2c0,0,0,0.1,0,0.1c-0.2,0.1-0.4,0.2-0.7,0.5c-0.2,0.2-0.3,0.3-0.4,0.5   c-0.1-0.3-0.2-0.6-0.2-0.9C61.5,25.7,61.9,24.9,62.5,24.5z" stroke="none" fill="url('#linearGradientSkbfh01d5y')" style=""></path>
        </g>
      </svg>
    </g>
    <g transform="matrix(3.6143,0,0,3.6143,120.8925,200.8925)">
      <svg width="15.800000000000004" height="15.560647842033557" viewBox="36.3,16.75904600363636,15.800000000000004,15.560647842033557">
        <defs>
          <linearGradient x1="0" y1="0.5" x2="1" y2="0.5" id="linearGradientSkbfh01d514">
            <stop offset="0%" stop-color="#000000"></stop>
            <stop offset="100%" stop-color="#000000"></stop>
          </linearGradient>
        </defs>
        <g></g>
        <g></g>
        <g></g>
        <g></g>
        <g></g>
        <g></g>
        <g></g>
        <g></g>
        <g></g>
        <g></g>
        <g></g>
        <g></g>
        <g></g>
        <g></g>
        <g>
          <path d="M47,24.5c-0.1,0-0.1,0.2-0.2,0.6c-0.1,0.2-0.2,0.4-0.4,0.7c-0.1-0.2-0.4-0.5-0.8-0.7c-0.3-0.2-0.7-0.3-0.9-0.4   c0,0,0-0.1,0-0.1c0-0.9-0.1-1.8-0.2-2.2c0.5,0,0.9,0.1,1.3,0.3c0.6,0.3,0.9,0.8,1,1.2C46.9,24.3,46.9,24.5,47,24.5   c0,0,0.1-0.2,0-0.7c-0.1-0.4-0.4-1-1-1.5c-0.6-0.5-1.7-0.7-2.7-0.4c-1,0.3-2,1.4-2,2.7c0,1.3,1.1,2.3,2.1,2.6   c1.1,0.3,2.1,0,2.7-0.5c0.6-0.5,0.9-1.1,1-1.6C47.1,24.8,47,24.5,47,24.5z M43.5,22.6c0.2-0.1,0.4-0.1,0.6-0.1   c-0.1,0.4-0.2,1.2-0.1,2.2c0,0,0,0.1,0,0.1c-0.2,0.1-0.6,0.2-0.9,0.4c-0.3,0.2-0.6,0.4-0.7,0.6c-0.2-0.3-0.4-0.7-0.4-1.1   C42,23.7,42.7,22.9,43.5,22.6z M43.6,26.7c-0.3-0.1-0.6-0.3-0.9-0.5c0.2-0.1,0.5-0.2,0.8-0.4c0.2-0.1,0.4-0.3,0.5-0.4   c0,0.6,0.1,1.2,0.2,1.5C44,26.8,43.8,26.7,43.6,26.7z M45.8,26.4c-0.3,0.2-0.8,0.4-1.3,0.4c0.1-0.3,0.1-0.8,0.1-1.5   c0.2,0.1,0.3,0.3,0.6,0.4c0.4,0.2,0.7,0.4,0.9,0.4C46,26.2,45.9,26.3,45.8,26.4z" stroke="none" fill="url('#linearGradientSkbfh01d514')" style=""></path>
        </g>
      </svg>
    </g>
    <g transform="matrix(3.6143,0,0,3.6143,169.8925,204.8925)">
      <svg width="15.672519319910862" height="15.548629978973953" viewBox="49.971925124533584,17.60339593877126,15.672519319910862,15.548629978973953">
        <defs>
          <linearGradient x1="0" y1="0.5" x2="1" y2="0.5" id="linearGradientSkbfh01d51a">
            <stop offset="0%" stop-color="#000000"></stop>
            <stop offset="100%" stop-color="#000000"></stop>
          </linearGradient>
        </defs>
        <g></g>
        <g></g>
        <g></g>
        <g></g>
        <g></g>
        <g></g>
        <g></g>
        <g></g>
        <g></g>
        <g></g>
        <g></g>
        <g></g>
        <g></g>
        <g></g>
        <g>
          <path d="M57.2,28.1c1.1,0.2,2.1-0.2,2.6-0.8c0.6-0.6,0.8-1.2,0.8-1.6c0-0.4-0.1-0.7-0.1-0.7c-0.1,0-0.1,0.2-0.1,0.6   c-0.1,0.2-0.2,0.5-0.3,0.7c-0.2-0.2-0.5-0.4-0.9-0.6c-0.4-0.2-0.7-0.3-0.9-0.3c0,0,0-0.1,0-0.1c-0.1-0.9-0.3-1.7-0.4-2.1   c0.5,0,1,0,1.3,0.2c0.6,0.3,1,0.7,1.1,1.1c0.2,0.3,0.2,0.6,0.3,0.6c0,0,0.1-0.2,0-0.7c-0.1-0.4-0.5-1-1.2-1.4   c-0.7-0.4-1.7-0.6-2.7-0.1c-1,0.4-1.9,1.6-1.7,2.9C55,27,56.1,27.9,57.2,28.1z M57.3,27.5c-0.3-0.1-0.7-0.2-0.9-0.4   c0.2-0.1,0.5-0.3,0.7-0.5c0.2-0.2,0.4-0.3,0.5-0.5c0.1,0.6,0.2,1.2,0.3,1.5C57.7,27.5,57.5,27.5,57.3,27.5z M58.9,26.3   c0.4,0.2,0.7,0.3,1,0.3c-0.1,0.1-0.2,0.2-0.3,0.3c-0.3,0.3-0.7,0.4-1.2,0.5c0-0.3,0-0.9,0-1.5C58.4,26.1,58.6,26.2,58.9,26.3z    M56.8,23.4c0.2-0.1,0.4-0.2,0.6-0.2c-0.1,0.4,0,1.2,0.1,2.2c0,0,0,0.1,0,0.1c-0.2,0.1-0.5,0.3-0.8,0.5c-0.3,0.2-0.5,0.5-0.6,0.7   c-0.3-0.3-0.5-0.7-0.5-1.1C55.4,24.6,56.1,23.8,56.8,23.4z" stroke="none" fill="url('#linearGradientSkbfh01d51a')" style=""></path>
        </g>
      </svg>
    </g>
    <g transform="matrix(3.6143,0,0,3.6143,144.0854,199.0854)">
      <svg width="16.15078408150839" height="16.148623541377656" viewBox="42.89366036293605,16.23673469387755,16.15078408150839,16.148623541377656">
        <defs>
          <linearGradient x1="0" y1="0.5" x2="1" y2="0.5" id="linearGradientSkbfh01d51g">
            <stop offset="0%" stop-color="#000000"></stop>
            <stop offset="100%" stop-color="#000000"></stop>
          </linearGradient>
        </defs>
        <g></g>
        <g></g>
        <g></g>
        <g></g>
        <g></g>
        <g></g>
        <g></g>
        <g></g>
        <g></g>
        <g></g>
        <g></g>
        <g></g>
        <g></g>
        <g></g>
        <g>
          <path d="M50,27.2c1.1,0.4,2.2,0.1,2.9-0.4c0.7-0.5,1-1.2,1.1-1.6c0.1-0.5,0-0.7,0-0.7c-0.1,0-0.1,0.2-0.2,0.6   c-0.1,0.2-0.2,0.5-0.5,0.7c-0.1-0.2-0.4-0.5-0.9-0.8c-0.4-0.3-0.7-0.4-1-0.5c0,0,0-0.1,0-0.1c0-1,0-1.9-0.1-2.4   c0.5,0,1,0.2,1.4,0.4c0.6,0.4,0.9,0.9,1.1,1.3c0.1,0.4,0.2,0.6,0.2,0.6c0,0,0.1-0.2,0-0.7c-0.1-0.5-0.4-1.1-1-1.7   c-0.7-0.5-1.8-0.9-2.9-0.5c-1.1,0.3-2.2,1.4-2.2,2.8C47.8,25.8,48.9,26.9,50,27.2z M50.2,26.6c-0.4-0.1-0.7-0.3-1-0.6   c0.2-0.1,0.6-0.2,0.9-0.4c0.3-0.2,0.5-0.3,0.6-0.5c0,0.7,0.1,1.3,0.1,1.7C50.6,26.8,50.4,26.7,50.2,26.6z M52,25.6   c0.4,0.3,0.8,0.4,1,0.5c-0.1,0.1-0.3,0.2-0.4,0.3c-0.4,0.2-0.9,0.4-1.4,0.4c0.1-0.3,0.2-0.9,0.2-1.7C51.6,25.3,51.8,25.4,52,25.6z    M50.3,22.2c0.2-0.1,0.5-0.1,0.7-0.1c-0.1,0.4-0.2,1.3-0.2,2.4c0,0,0,0.1,0,0.1c-0.3,0.1-0.6,0.2-1,0.4c-0.4,0.2-0.6,0.5-0.8,0.7   c-0.2-0.4-0.4-0.8-0.4-1.3C48.6,23.3,49.4,22.4,50.3,22.2z" stroke="none" fill="url('#linearGradientSkbfh01d51g')" style=""></path>
        </g>
      </svg>
    </g>
    <g transform="matrix(3.6143,0,0,3.6143,0.9337,144.705)">
      <svg width="93.1" height="97.56595648100573" viewBox="3.1999999999999993,1.234043518994266,93.1,97.56595648100573">
        <defs>
          <linearGradient x1="0" y1="0.5" x2="1" y2="0.5" id="linearGradientSkbfh01d51m">
            <stop offset="0%" stop-color="#000000"></stop>
            <stop offset="100%" stop-color="#000000"></stop>
          </linearGradient>
        </defs>
        <g></g>
        <g></g>
        <g></g>
        <g></g>
        <g></g>
        <g></g>
        <g></g>
        <g></g>
        <g></g>
        <g></g>
        <g></g>
        <g></g>
        <g></g>
        <g></g>
        <g>
          <path d="M84.4,77.1L72,58.5c3.4,3.8,19.3,5.6,19.3,5.6s-25.7-7.9-23.9-30.3c0.5-6.3-0.7-11.1-2.6-14.7c0,0,0.1,0,0.1-0.1   c0-0.1,0-0.1,0-0.2c0-0.2-0.1-0.3-0.1-0.4c-0.5-1-1.2-1.8-1.8-2.6c-0.3-0.4-0.7-0.8-1-1.2c-0.2-0.3-0.5-0.6-0.7-0.8l0.6,0   c0.3,0,0.6,0,0.9,0c0.6,0,1.2,0,1.8-0.1c0.6-0.1,1.2-0.2,1.7-0.6c0.3-0.2,0.5-0.4,0.6-0.7c0-0.2,0.1-0.4,0-0.5   c-0.1-0.2-0.2-0.3-0.4-0.3c-0.6-0.2-1.2-0.2-1.7-0.2c-0.6,0-1.1,0.1-1.6,0.2c-0.8,0.1-1.6,0.3-2.3,0.5c0.8-0.5,1.5-1.1,2.1-1.8   c0.7-0.8,1.3-1.7,1.3-2.7c0-0.5,0-1-0.5-1.3c-0.5-0.2-0.9,0.1-1.3,0.3c-0.7,0.4-1.2,1-1.7,1.4c-0.9,1-1.5,1.8-1.9,2.4   c-0.4,0.6-0.6,0.9-0.6,0.9c0,0,0.1-0.1,0.2-0.2c0.1-0.1,0.3-0.4,0.5-0.7c0.4-0.6,1-1.4,2-2.4c0.5-0.5,1-1,1.7-1.4   c0.3-0.2,0.8-0.4,1.1-0.3C63.9,6.6,64,7.1,64,7.5c0,0.9-0.6,1.8-1.3,2.6C62,10.9,61,11.6,60,12.2l0.1,0.2c1-0.2,2-0.4,3-0.6   c0.5-0.1,1.1-0.1,1.6-0.2c0.5,0,1.1,0,1.6,0.1c0.5,0.2,0.2,0.8-0.2,1.1c-0.5,0.3-1,0.4-1.6,0.5c-0.6,0.1-1.2,0.1-1.8,0.1   c-0.3,0-0.6,0-0.9,0l-0.5,0l-0.9-0.1l0.8,0.9l0.5,0.6c0.3,0.4,0.6,0.8,1,1.2c0.6,0.8,1.3,1.6,1.8,2.5c0,0.1,0.1,0.2,0.1,0.3   c0,0.1,0,0-0.1,0c-0.2,0-0.5-0.1-0.7-0.3c-0.5-0.2-0.9-0.5-1.4-0.8c-0.4-0.3-0.8-0.7-1.2-1c-0.2-0.2-0.4-0.4-0.5-0.6L60.6,16   l-0.1-0.1l-0.1-0.2c-0.1-0.2-0.3-0.6-0.4-0.9l-0.2,1.4L59.7,17c-0.1,0.5-0.2,1.1-0.3,1.6c-0.1,0.5-0.2,1.1-0.4,1.6   c-0.1,0.2-0.2,0.5-0.3,0.6c0,0.1-0.2-0.1-0.3-0.3c-0.6-1.4-0.7-3.1-0.3-4.6l-0.3-0.1c-0.4,0.7-0.9,1.5-1.4,2.1   c-0.3,0.3-0.5,0.7-0.8,0.9c-0.3,0.3-0.7,0.6-0.8,0.3c-0.1-0.3-0.1-0.7-0.1-1.1c0-0.4,0.2-0.8,0.4-1.1c0.2-0.4,0.4-0.7,0.7-1   c0.1-0.1,0.3-0.3,0.4-0.4l0.1-0.1l0.2-0.1l0.5-0.4c-0.6-0.1-1.2-0.1-1.8-0.2c-0.5-0.1-0.9-0.1-1.4-0.2c-0.5-0.1-0.9-0.2-1.3-0.3   c-0.2,0-0.4-0.1-0.6-0.2c-0.1,0-0.2-0.1-0.3-0.1c0,0,0,0,0,0c0,0,0.3-0.1,0.5-0.2c0.2,0,0.4-0.1,0.6-0.1c0.4-0.1,0.9-0.1,1.3-0.1   c0.8,0,1.7,0.1,2.5,0.2l0.1-0.3c-1-0.5-1.9-1-2.8-1.5c-0.4-0.3-0.9-0.5-1.2-0.8c-0.2-0.2-0.4-0.3-0.5-0.5c-0.1-0.2-0.3-0.4-0.2-0.5   c0.3-0.2,0.8-0.2,1.3-0.1c0.4,0.1,0.9,0.2,1.3,0.4c0.4,0.2,0.8,0.3,1.2,0.5c0.2,0.1,0.4,0.2,0.6,0.3c0.3,0.1,0.6,0.3,0.9,0.5   c-0.2-0.3-0.3-0.6-0.5-0.9c-0.1-0.2-0.2-0.4-0.3-0.6c-0.2-0.4-0.4-0.7-0.5-1.1c-0.3-0.7-0.6-1.4-0.7-2.1c0-0.2,0-0.3,0.1-0.4   c0.1-0.1,0.3,0,0.4,0c0.3,0.1,0.5,0.3,0.8,0.5c0.4,0.4,0.7,0.8,1,1.2c0.5,0.8,0.7,1.5,0.9,2c0.2,0.5,0.2,0.7,0.2,0.7s0-0.3-0.2-0.7   c-0.1-0.5-0.4-1.2-0.8-2.1c-0.2-0.4-0.5-0.9-1-1.3C56,7,55.7,6.8,55.4,6.7c-0.2-0.1-0.3-0.1-0.5,0c-0.2,0.1-0.2,0.4-0.2,0.5   c0.1,0.7,0.4,1.4,0.7,2.1c0.1,0.2,0.2,0.4,0.3,0.6c-3.2-1.8-5.8-2.3-5.8-2.3s-19.3,3.8-17.6,26.2C33.9,56.2,8.2,64.1,8.2,64.1   s15.9-1.7,19.3-5.6L15.1,77.1c0,0,8.8-5.1,11.1-8.1c-1.7,2.9-7.9,14.5-4.5,24.8l19.6-13.6c0.6,1.1,1,2.3,1.4,3.3   c0.6,1.5,1.1,2.8,1.9,3.9c0.6,0.8,1.3,1.2,2.2,1.3c0.1,0,0.2,0,0.3,0c1.1,0,2.2-0.6,2.7-1c0.6,0.4,1.7,1.1,3,1   c0.9-0.1,1.6-0.5,2.2-1.3c0.8-1.1,1.4-2.5,1.9-3.9c0.4-1,0.8-2.1,1.4-3.3l19.6,13.6c3.3-10.3-2.8-21.8-4.5-24.8   C75.6,72,84.4,77.1,84.4,77.1z M34.5,23.4c0,0,18.4-6.2,30.8,0.7l1,6.6c0,0-23.7-6.4-32.8-0.1L34.5,23.4z M55.9,83.1   c-0.6,1.5-1,2.7-1.8,3.7c-0.4,0.5-0.9,0.8-1.5,0.9c-1.3,0.1-2.6-1-2.6-1l-0.3-0.3l-0.3,0.3c-0.4,0.3-1.5,1.1-2.6,1   c-0.6-0.1-1.1-0.4-1.5-0.9c-0.8-1-1.2-2.2-1.8-3.7c-0.8-2.1-1.7-4.5-3.7-6.9c-3.3-3.9-4.1-14.4-3.8-17c0.3-2.2-1.1-3.5-2.5-4.9   c-0.6-0.6-1.3-1.3-1.8-2c-1-1.5,1.4-9.2,3.2-13.9c0.9-0.4,4.5-1.8,7.8-2.8c3.4-1,4.9-4.1,5.4-5.2h3.1c0.4,1,2,4.1,5.4,5.2   c3.3,1,6.9,2.4,7.8,2.8c1.8,4.7,4.2,12.4,3.2,13.9c-0.5,0.7-1.1,1.4-1.8,2c-1.4,1.3-2.8,2.7-2.5,4.9c0.4,2.6-0.5,13.1-3.8,17   C57.7,78.6,56.7,81,55.9,83.1z" stroke="none" fill="url('#linearGradientSkbfh01d51m')" style=""></path>
        </g>
      </svg>
    </g>
    <g transform="matrix(3.6143,0,0,3.6143,125.628,371.314)">
      <svg width="24.52013869515089" height="12.810943647472158" viewBox="37.68928571428572,64.19999999999999,24.52013869515089,12.810943647472158">
        <defs>
          <linearGradient x1="0" y1="0.5" x2="1" y2="0.5" id="linearGradientSkbfh01d51s">
            <stop offset="0%" stop-color="#000000"></stop>
            <stop offset="100%" stop-color="#000000"></stop>
          </linearGradient>
        </defs>
        <g></g>
        <g></g>
        <g></g>
        <g></g>
        <g></g>
        <g></g>
        <g></g>
        <g></g>
        <g></g>
        <g></g>
        <g></g>
        <g></g>
        <g></g>
        <g></g>
        <g>
          <path d="M55.1,70.1c-1.3,0.5-3.1,1.1-5.2,1.2c-2.1,0.1-3.9-0.4-5.2-1c-1.3-0.6-1.9-1.1-2-1c-0.1,0.1,0.5,0.8,1.8,1.5   c1.2,0.7,3.2,1.3,5.4,1.2c2.2-0.1,4.1-0.8,5.4-1.5c1.3-0.7,2-1.2,1.9-1.3C57.2,69.2,56.4,69.6,55.1,70.1z" stroke="none" fill="url('#linearGradientSkbfh01d51s')" style=""></path>
        </g>
      </svg>
    </g>
    <g transform="matrix(3.6143,0,0,3.6143,114.0854,254.1212)">
      <svg width="16.333783537276716" height="11.654508497187479" viewBox="34.6,31.945491502812523,16.333783537276716,11.654508497187479">
        <defs>
          <linearGradient x1="0" y1="0.5" x2="1" y2="0.5" id="linearGradientSkbfh01d51y">
            <stop offset="0%" stop-color="#000000"></stop>
            <stop offset="100%" stop-color="#000000"></stop>
          </linearGradient>
        </defs>
        <g></g>
        <g></g>
        <g></g>
        <g></g>
        <g></g>
        <g></g>
        <g></g>
        <g></g>
        <g></g>
        <g></g>
        <g></g>
        <g></g>
        <g></g>
        <g></g>
        <g>
          <path d="M45.1,38.1c0.5,0.2,0.7,0.5,0.8,0.5c0.1,0,0-0.5-0.6-0.9C44.8,37.3,44,37,43,37c-1.9-0.2-3.4,0.2-3.4,0.4   c0,0.2,1.5,0.2,3.3,0.3C43.8,37.7,44.6,37.9,45.1,38.1z" stroke="none" fill="url('#linearGradientSkbfh01d51y')" style=""></path>
        </g>
      </svg>
    </g>
    <g transform="matrix(3.6143,0,0,3.6143,164.0854,254.1212)">
      <svg width="16.33378353727671" height="11.639725963102556" viewBox="48.76621646272329,31.88013701844872,16.33378353727671,11.639725963102556">
        <defs>
          <linearGradient x1="0" y1="0.5" x2="1" y2="0.5" id="linearGradientSkbfh01d524">
            <stop offset="0%" stop-color="#000000"></stop>
            <stop offset="100%" stop-color="#000000"></stop>
          </linearGradient>
        </defs>
        <g></g>
        <g></g>
        <g></g>
        <g></g>
        <g></g>
        <g></g>
        <g></g>
        <g></g>
        <g></g>
        <g></g>
        <g></g>
        <g></g>
        <g></g>
        <g></g>
        <g>
          <path d="M54.6,38.1c0.5-0.2,1.3-0.4,2.2-0.5c1.8-0.2,3.3-0.1,3.3-0.3c0-0.2-1.5-0.5-3.4-0.4c-0.9,0.1-1.8,0.3-2.3,0.7   c-0.6,0.4-0.7,0.9-0.6,0.9C53.9,38.6,54.1,38.3,54.6,38.1z" stroke="none" fill="url('#linearGradientSkbfh01d524')" style=""></path>
        </g>
      </svg>
    </g>
    <g transform="matrix(3.6143,0,0,3.6143,138.2782,381.6639)">
      <svg width="17.815314371469235" height="19.05184" viewBox="40.88468562853076,67.24816,17.815314371469235,19.05184">
        <defs>
          <linearGradient x1="0" y1="0.5" x2="1" y2="0.5" id="linearGradientSkbfh01d52a">
            <stop offset="0%" stop-color="#000000"></stop>
            <stop offset="100%" stop-color="#000000"></stop>
          </linearGradient>
        </defs>
        <g></g>
        <g></g>
        <g></g>
        <g></g>
        <g></g>
        <g></g>
        <g></g>
        <g></g>
        <g></g>
        <g></g>
        <g></g>
        <g></g>
        <g></g>
        <g></g>
        <g>
          <path d="M49.8,73.1c-2.2,0-3.8-1-3.9-0.8c-0.1,0.1,0.3,0.4,0.9,0.8l3,8.2l2.8-8.1c0,0,0.1,0,0.1-0.1c0.7-0.4,1-0.7,1-0.8   C53.6,72,52,73.1,49.8,73.1z" stroke="none" fill="url('#linearGradientSkbfh01d52a')" style=""></path>
        </g>
      </svg>
    </g>
    <g transform="matrix(0.9965,0,0,0.9743,10.0495,0.9546)">
      <svg width="310.0008111984599" height="269.88949465764887" viewBox="11.665938249129479,31.721595342351122,310.0008111984599,269.88949465764887">
        <defs>
          <linearGradient x1="0" y1="0.5" x2="1" y2="0.5" id="linearGradientSkbfh01d52g">
            <stop offset="0%" stop-color="#000000"></stop>
            <stop offset="100%" stop-color="#000000"></stop>
          </linearGradient>
        </defs>
        <g></g>
        <g></g>
        <g></g>
        <g></g>
        <g></g>
        <g></g>
        <g></g>
        <g></g>
        <g></g>
        <g></g>
        <g></g>
        <g></g>
        <g></g>
        <g></g>
        <g>
          <path d="m 144.4303,71.312299 c -4.44599,-28.442305 -27.77574,-7.998774 -27.77574,-7.998774 0,0 17.1107,-35.547882 37.10764,-24.442918 19.99693,11.111631 96.20525,224.412263 96.20525,224.412263 0,0 68.65614,5.77911 66.65645,16.66411 -1.99969,10.885 -99.98467,16.66411 -149.97701,16.66411 -49.99233,0 -149.31044,-5.77911 -149.977005,-16.66411 -0.666564,-10.885 83.32056,-16.66411 83.32056,-16.66411 0,0 48.879175,-163.528265 44.439855,-191.970571 z m 12.998,111.536231 c 0,0 -6.66564,15.83091 -6.66564,15.83091 0,0 -17.89059,0.83321 -17.89059,0.83321 0,0 14.89105,11.49823 14.89105,11.49823 0,0 -2.8329,15.49763 -2.8329,15.49763 0,0 13.16465,-10.33175 13.16465,-10.33175 0,0 16.99739,10.2251 16.99739,10.2251 0,0 -8.83198,-16.94407 -8.83198,-17.39067 0,-0.43993 11.83152,-7.66549 11.83152,-7.66549 0,0 -15.16434,-3.16618 -15.16434,-3.16618 0,0 -5.49916,-15.33099 -5.49916,-15.33099 z m 48.29927,44.10658 c 0,0 -4.41933,10.33175 -4.41933,10.33175 0,0 -10.49839,-0.16665 -10.49839,-0.16665 0,0 7.25222,7.25223 7.25222,7.25223 0,0 -4.7526,12.91135 -4.7526,12.91135 0,0 10.99831,-8.2454 10.99831,-8.2454 0,0 9.41856,4.99923 9.41856,4.99923 0,0 -2.91955,-9.25191 -2.91955,-9.25191 0,0 7.99877,-5.99908 7.99877,-5.99908 0,0 -8.83198,-2.49962 -9.49854,-2.49962 -0.66657,0 -3.57945,-9.3319 -3.57945,-9.3319 z m -30.41534,-93.87228 c 0,0 -4.91258,10.74502 -4.91258,10.74502 0,0 -11.41825,-0.08 -11.41825,-0.08 0,0 7.25222,6.74563 7.25222,6.74563 0,0 -5.83244,9.5852 -5.49916,9.5852 0.33329,0 11.16496,-3.58612 11.16496,-3.58612 0,0 7.83213,7.25223 7.83213,6.91894 0,-0.33328 0.91319,-10.33175 0.91319,-10.33175 0,0 10.41841,-6.99892 10.41841,-6.99892 0,0 -11.49824,-1.9997 -11.49824,-1.9997 0,0 -4.25268,-10.99831 -4.25268,-10.99831 z" style="" fill="url('#linearGradientSkbfh01d52g')" fill-opacity="1" stroke="none"></path>
        </g>
      </svg>
    </g>
    <g transform="matrix(0.5324,0.0843,-0.0843,0.5324,151.8516,88.0208)">
      <svg width="81.964" height="81.726" viewBox="9.018,8.98,81.964,81.726">
        <defs>
          <linearGradient x1="0" y1="0.5" x2="1" y2="0.5" id="linearGradientSkbfh01d52m">
            <stop offset="0%" stop-color="#ffffff"></stop>
            <stop offset="100%" stop-color="#ffffff"></stop>
          </linearGradient>
        </defs>
        <g></g>
        <g></g>
        <g></g>
        <g></g>
        <g></g>
        <g></g>
        <g></g>
        <g></g>
        <g></g>
        <g></g>
        <g></g>
        <g></g>
        <g></g>
        <g></g>
        <g>
          <path d="M71.686,85.706L69,60l16.982-17.541L62,39L50.001,13.98L38,39l-23.982,3.284L31,60l-2.692,25.676L49.98,72   c0.017,0,0.028,0,0.049,0L71.686,85.706z" stroke="none" fill="url('#linearGradientSkbfh01d52m')" style=""></path>
        </g>
      </svg>
    </g>
    <g transform="matrix(0.5361,0.0563,-0.0563,0.5361,182.5691,179.0049)">
      <svg width="81.964" height="81.726" viewBox="9.018,8.98,81.964,81.726">
        <defs>
          <linearGradient x1="0" y1="0.5" x2="1" y2="0.5" id="linearGradientSkbfh01d52s">
            <stop offset="0%" stop-color="#ffffff"></stop>
            <stop offset="100%" stop-color="#ffffff"></stop>
          </linearGradient>
        </defs>
        <g></g>
        <g></g>
        <g></g>
        <g></g>
        <g></g>
        <g></g>
        <g></g>
        <g></g>
        <g></g>
        <g></g>
        <g></g>
        <g></g>
        <g></g>
        <g></g>
        <g>
          <path d="M71.686,85.706L69,60l16.982-17.541L62,39L50.001,13.98L38,39l-23.982,3.284L31,60l-2.692,25.676L49.98,72   c0.017,0,0.028,0,0.049,0L71.686,85.706z" stroke="none" fill="url('#linearGradientSkbfh01d52s')" style=""></path>
        </g>
      </svg>
    </g>
    <g transform="matrix(0.7123,-0.0498,0.0498,0.7123,124.1345,141.169)">
      <svg width="81.964" height="81.726" viewBox="9.018,8.98,81.964,81.726">
        <defs>
          <linearGradient x1="0" y1="0.5" x2="1" y2="0.5" id="linearGradientSkbfh01d52y">
            <stop offset="0%" stop-color="#ffffff"></stop>
            <stop offset="100%" stop-color="#ffffff"></stop>
          </linearGradient>
        </defs>
        <g></g>
        <g></g>
        <g></g>
        <g></g>
        <g></g>
        <g></g>
        <g></g>
        <g></g>
        <g></g>
        <g></g>
        <g></g>
        <g></g>
        <g></g>
        <g></g>
        <g>
          <path d="M71.686,85.706L69,60l16.982-17.541L62,39L50.001,13.98L38,39l-23.982,3.284L31,60l-2.692,25.676L49.98,72   c0.017,0,0.028,0,0.049,0L71.686,85.706z" stroke="none" fill="url('#linearGradientSkbfh01d52y')" style=""></path>
        </g>
      </svg>
    </g>
  </g>
</svg>