<?xml version="1.0" encoding="UTF-8"?>
<svg xmlns="http://www.w3.org/2000/svg" xmlns:xlink="http://www.w3.org/1999/xlink" width="32pt" height="32pt" viewBox="0 0 32 32" version="1.1">
<g id="surface1" transform="rotate(-90 16 16)">
<path style=" stroke:none;fill-rule:nonzero;fill:rgb(100%,70.588235%,32.941176%);fill-opacity:1;" d="M 13.417969 19.519531 C 13.179688 19.519531 12.9375 19.425781 12.757812 19.242188 C 12.390625 18.878906 12.390625 18.285156 12.757812 17.917969 L 22.222656 8.453125 C 22.585938 8.085938 23.179688 8.085938 23.546875 8.453125 C 23.914062 8.820312 23.914062 9.414062 23.546875 9.777344 L 14.082031 19.242188 C 13.898438 19.425781 13.660156 19.519531 13.417969 19.519531 Z M 13.417969 19.519531 "/>
<path style=" stroke:none;fill-rule:nonzero;fill:rgb(100%,52.54902%,34.901961%);fill-opacity:1;" d="M 12.757812 19.242188 C 12.9375 19.425781 13.179688 19.519531 13.417969 19.519531 C 13.660156 19.519531 13.898438 19.425781 14.082031 19.242188 L 23.546875 9.777344 C 23.914062 9.414062 23.914062 8.820312 23.546875 8.453125 Z M 12.757812 19.242188 "/>
<path style=" stroke:none;fill-rule:nonzero;fill:rgb(100%,86.666667%,32.941176%);fill-opacity:1;" d="M 24.179688 14.222656 C 24.128906 14.222656 24.082031 14.21875 24.03125 14.210938 C 23.679688 14.152344 23.390625 13.902344 23.285156 13.5625 L 22.136719 9.867188 L 18.4375 8.714844 C 18.097656 8.609375 17.847656 8.320312 17.789062 7.96875 C 17.734375 7.613281 17.882812 7.261719 18.175781 7.054688 L 21.335938 4.820312 L 21.285156 0.949219 C 21.28125 0.59375 21.480469 0.265625 21.796875 0.101562 C 22.117188 -0.0585938 22.5 -0.0273438 22.785156 0.1875 L 25.886719 2.5 L 29.554688 1.257812 C 29.890625 1.144531 30.265625 1.230469 30.515625 1.484375 C 30.769531 1.734375 30.855469 2.109375 30.742188 2.445312 L 29.5 6.113281 L 31.8125 9.214844 C 32.027344 9.5 32.058594 9.882812 31.898438 10.203125 C 31.734375 10.519531 31.40625 10.71875 31.050781 10.714844 L 27.179688 10.664062 L 24.945312 13.824219 C 24.765625 14.074219 24.480469 14.222656 24.179688 14.222656 Z M 24.179688 14.222656 "/>
<path style=" stroke:none;fill-rule:nonzero;fill:rgb(41.960784%,38.039216%,69.411765%);fill-opacity:1;" d="M 0.550781 31.449219 C -0.183594 30.71875 -0.183594 29.53125 0.550781 28.800781 L 11.820312 17.53125 C 12.183594 17.164062 12.777344 17.164062 13.144531 17.53125 L 14.46875 18.855469 C 14.835938 19.222656 14.835938 19.816406 14.46875 20.179688 L 3.199219 31.449219 C 2.46875 32.183594 1.28125 32.183594 0.550781 31.449219 Z M 0.550781 31.449219 "/>
<!-- <path style=" stroke:none;fill-rule:nonzero;fill:rgb(100%,70.588235%,32.941176%);fill-opacity:1;" d="M 31.0625 20 L 30.125 20 L 30.125 19.0625 C 30.125 18.542969 29.707031 18.125 29.1875 18.125 C 28.667969 18.125 28.25 18.542969 28.25 19.0625 L 28.25 20 L 27.3125 20 C 26.792969 20 26.375 20.417969 26.375 20.9375 C 26.375 21.457031 26.792969 21.875 27.3125 21.875 L 28.25 21.875 L 28.25 22.8125 C 28.25 23.332031 28.667969 23.75 29.1875 23.75 C 29.707031 23.75 30.125 23.332031 30.125 22.8125 L 30.125 21.875 L 31.0625 21.875 C 31.582031 21.875 32 21.457031 32 20.9375 C 32 20.417969 31.582031 20 31.0625 20 Z M 31.0625 20 "/> -->
<!-- <path style=" stroke:none;fill-rule:nonzero;fill:rgb(100%,70.588235%,32.941176%);fill-opacity:1;" d="M 22.625 20 C 22.625 20.519531 22.207031 20.9375 21.6875 20.9375 C 21.167969 20.9375 20.75 20.519531 20.75 20 C 20.75 19.480469 21.167969 19.0625 21.6875 19.0625 C 22.207031 19.0625 22.625 19.480469 22.625 20 Z M 22.625 20 "/>
<path style=" stroke:none;fill-rule:nonzero;fill:rgb(100%,70.588235%,32.941176%);fill-opacity:1;" d="M 30.125 15 C 30.125 15.519531 29.707031 15.9375 29.1875 15.9375 C 28.667969 15.9375 28.25 15.519531 28.25 15 C 28.25 14.480469 28.667969 14.0625 29.1875 14.0625 C 29.707031 14.0625 30.125 14.480469 30.125 15 Z M 30.125 15 "/>
<path style=" stroke:none;fill-rule:nonzero;fill:rgb(100%,86.666667%,32.941176%);fill-opacity:1;" d="M 12.875 10.625 L 11.9375 10.625 L 11.9375 9.6875 C 11.9375 9.167969 11.519531 8.75 11 8.75 C 10.480469 8.75 10.0625 9.167969 10.0625 9.6875 L 10.0625 10.625 L 9.125 10.625 C 8.605469 10.625 8.1875 11.042969 8.1875 11.5625 C 8.1875 12.082031 8.605469 12.5 9.125 12.5 L 10.0625 12.5 L 10.0625 13.4375 C 10.0625 13.957031 10.480469 14.375 11 14.375 C 11.519531 14.375 11.9375 13.957031 11.9375 13.4375 L 11.9375 12.5 L 12.875 12.5 C 13.394531 12.5 13.8125 12.082031 13.8125 11.5625 C 13.8125 11.042969 13.394531 10.625 12.875 10.625 Z M 12.875 10.625 "/> -->
<!-- <path style=" stroke:none;fill-rule:nonzero;fill:rgb(100%,86.666667%,32.941176%);fill-opacity:1;" d="M 17.25 1.875 L 16.3125 1.875 L 16.3125 0.9375 C 16.3125 0.417969 15.894531 0 15.375 0 C 14.855469 0 14.4375 0.417969 14.4375 0.9375 L 14.4375 1.875 L 13.5 1.875 C 12.980469 1.875 12.5625 2.292969 12.5625 2.8125 C 12.5625 3.332031 12.980469 3.75 13.5 3.75 L 14.4375 3.75 L 14.4375 4.6875 C 14.4375 5.207031 14.855469 5.625 15.375 5.625 C 15.894531 5.625 16.3125 5.207031 16.3125 4.6875 L 16.3125 3.75 L 17.25 3.75 C 17.769531 3.75 18.1875 3.332031 18.1875 2.8125 C 18.1875 2.292969 17.769531 1.875 17.25 1.875 Z M 17.25 1.875 "/> -->
<!-- <path style=" stroke:none;fill-rule:nonzero;fill:rgb(100%,86.666667%,32.941176%);fill-opacity:1;" d="M 9.75 5.625 C 9.75 6.144531 9.332031 6.5625 8.8125 6.5625 C 8.292969 6.5625 7.875 6.144531 7.875 5.625 C 7.875 5.105469 8.292969 4.6875 8.8125 4.6875 C 9.332031 4.6875 9.75 5.105469 9.75 5.625 Z M 9.75 5.625 "/>
<path style=" stroke:none;fill-rule:nonzero;fill:rgb(100%,70.588235%,32.941176%);fill-opacity:1;" d="M 22.132812 9.867188 L 23.285156 13.5625 C 23.390625 13.902344 23.679688 14.152344 24.03125 14.210938 C 24.082031 14.21875 24.128906 14.222656 24.179688 14.222656 C 24.480469 14.222656 24.765625 14.074219 24.945312 13.824219 L 27.179688 10.664062 L 31.050781 10.714844 C 31.40625 10.71875 31.734375 10.519531 31.898438 10.203125 C 32.058594 9.882812 32.027344 9.5 31.8125 9.214844 L 29.5 6.113281 L 30.742188 2.445312 C 30.855469 2.109375 30.769531 1.734375 30.515625 1.484375 Z M 22.132812 9.867188 "/>
<path style=" stroke:none;fill-rule:nonzero;fill:rgb(27.058824%,23.921569%,50.588235%);fill-opacity:1;" d="M 0.550781 31.449219 C 1.28125 32.183594 2.46875 32.183594 3.199219 31.449219 L 14.46875 20.179688 C 14.835938 19.816406 14.835938 19.222656 14.46875 18.855469 L 13.808594 18.191406 Z M 0.550781 31.449219 "/> -->
</g>
</svg>
