<svg class="thumb" width="1000" height="1000" viewBox="0,0,600,600" xmlns="http://www.w3.org/2000/svg" xmlns:inkscape="http://www.inkscape.org/namespaces/inkscape" xmlns:sodipodi="http://sodipodi.sourceforge.net/DTD/sodipodi-0.dtd" xmlns:xlink="http://www.w3.org/1999/xlink" xmlns:ns1="http://www.inkscape.org/namespaces/inkscape" xmlns:sketch="http://www.bohemiancoding.com/sketch/ns">
  <defs></defs>
  <g transform="matrix(1.2402,0,0,1.2402,-120.5392,104.9657)">
    <g transform="matrix(0.4033,0,0,0.4033,494.4021,73.9766)">
      <svg width="120.62822323360314" height="258.1952273837635" viewBox="186.70280676639686,197.2151547389566,120.62822323360314,258.1952273837635">
        <defs>
          <linearGradient x1="0" y1="0.5" x2="1" y2="0.5" id="linearGradientSkabbzgl64">
            <stop offset="0%" stop-color="#8a25b1"></stop>
            <stop offset="100%" stop-color="#000000"></stop>
          </linearGradient>
        </defs>
        <g></g>
        <g>
          <path style="opacity: 1; fill-opacity: 1; fill-rule: evenodd; stroke-width: 1.5; stroke-linecap: round; stroke-linejoin: round; stroke-miterlimit: 4; stroke-dasharray: none; stroke-dashoffset: 0; stroke-opacity: 1;" d="m 204.56473,214.93799 c 17.63879,-21.20685 53.89232,-12.41481 61.17539,1.14347 11.73425,21.8446 36.59091,226.40619 36.59091,226.40619 -12.76107,6.87587 -107.68022,10.56123 -109.77269,5.71732 0,0 -5.6324,-212.06013 12.00639,-233.26698 z" stroke="none" fill="url('#linearGradientSkabbzgl64')"></path>
        </g>
      </svg>
    </g>
    <g transform="matrix(0.4033,0,0,0.4033,528.0891,44.408)">
      <svg width="67.25211840166025" height="117.02583199962405" viewBox="271.5929189498928,123.10013680476013,67.25211840166025,117.02583199962405">
        <defs>
          <linearGradient x1="0" y1="0.5" x2="1" y2="0.5" id="linearGradientSkabbzgl6a">
            <stop offset="0%" stop-color="#8a25b1"></stop>
            <stop offset="100%" stop-color="#000000"></stop>
          </linearGradient>
        </defs>
        <g></g>
        <g>
          <path style="color: rgb(0, 0, 0); font: medium sans-serif; text-indent: 0px; text-align: start; text-decoration: none solid rgb(0, 0, 0); letter-spacing: normal; word-spacing: normal; text-transform: none; direction: ltr; writing-mode: lr-tb; baseline-shift: baseline; text-anchor: start; white-space: normal; clip-rule: nonzero; display: inline; overflow: visible; visibility: visible; opacity: 1; isolation: auto; mix-blend-mode: normal; color-interpolation: srgb; color-interpolation-filters: linearrgb; fill-opacity: 1; fill-rule: evenodd; stroke-width: 20; stroke-linecap: round; stroke-linejoin: miter; stroke-miterlimit: 4; stroke-dasharray: none; stroke-dashoffset: 0; stroke-opacity: 1; color-rendering: auto; image-rendering: auto; shape-rendering: auto; text-rendering: auto;" d="m 317.12139,128.10884 c -7.15651,0.3069 -11.70383,8.2889 -8.65647,15.19492 8.04289,18.92219 6.74602,31.99878 0.90123,43.41021 -5.8448,11.41143 -17.46466,21.33553 -31.71306,28.96305 -4.13224,5.11261 4.86584,22.23649 8.98687,19.05875 16.45746,-8.81009 31.58515,-20.79561 40.29718,-37.80506 8.71204,-17.00944 9.77868,-38.86489 -0.23654,-62.4273 -1.64993,-4.03227 -5.45403,-6.57168 -9.57921,-6.39457 z" stroke="none" fill="url('#linearGradientSkabbzgl6a')"></path>
        </g>
      </svg>
    </g>
    <g transform="matrix(0.4033,0,0,0.4033,537.9531,17.6507)">
      <svg width="28.67918000000003" height="91.47862599999999" viewBox="295.69127,58.082054,28.67918000000003,91.47862599999999">
        <defs>
          <linearGradient x1="0" y1="0.5" x2="1" y2="0.5">
            <stop offset="0%" stop-color="#8a25b1"></stop>
            <stop offset="100%" stop-color="#000000"></stop>
          </linearGradient>
        </defs>
        <g></g>
        <g></g>
      </svg>
    </g>
    <g transform="matrix(0.4033,0,0,0.4033,533.3645,0.1196)">
      <svg width="21.319586989590505" height="49.346051754639724" viewBox="285.2157,14.377957000000002,21.319586989590505,49.346051754639724">
        <defs>
          <linearGradient x1="0" y1="0.5" x2="1" y2="0.5" id="linearGradientSkabbzgl6m">
            <stop offset="0%" stop-color="#8a25b1"></stop>
            <stop offset="100%" stop-color="#000000"></stop>
          </linearGradient>
        </defs>
        <g></g>
        <g>
          <path style="" d="m 301.5147,56.116373 -11.299,-36.738416 6.87061,38.0135 c 1.33541,2.448284 4.74452,1.227309 4.42839,-1.275084 z" fill="url('#linearGradientSkabbzgl6m')" fill-rule="evenodd" stroke="none"></path>
        </g>
      </svg>
    </g>
    <g transform="matrix(0.4033,0,0,0.4033,539.9366,4.9344)">
      <svg width="38.123633939404726" height="40.37442529624707" viewBox="300.7349260605953,26.291244000000003,38.123633939404726,40.37442529624707">
        <defs>
          <linearGradient x1="0" y1="0.5" x2="1" y2="0.5" id="linearGradientSkabbzgl6s">
            <stop offset="0%" stop-color="#8a25b1"></stop>
            <stop offset="100%" stop-color="#000000"></stop>
          </linearGradient>
        </defs>
        <g></g>
        <g>
          <path d="m 309.57567,61.085878 24.28289,-29.794634 -27.80202,26.819379 c -1.29488,2.469958 1.61335,4.627501 3.51913,2.975255 z" style="" fill="url('#linearGradientSkabbzgl6s')" fill-rule="evenodd" stroke="none"></path>
        </g>
      </svg>
    </g>
    <g transform="matrix(0.4033,0,0,0.4033,521.3235,11.1524)">
      <svg width="46.51863133302629" height="29.14150913715919" viewBox="254.19199000000003,41.302796,46.51863133302629,29.14150913715919">
        <defs>
          <linearGradient x1="0" y1="0.5" x2="1" y2="0.5" id="linearGradientSkabbzgl6y">
            <stop offset="0%" stop-color="#8a25b1"></stop>
            <stop offset="100%" stop-color="#000000"></stop>
          </linearGradient>
        </defs>
        <g></g>
        <g>
          <path style="" d="m 292.60692,65.298069 -33.41493,-18.995273 35.61979,14.948651 c 2.10053,1.834436 0.16949,4.89775 -2.20486,4.046622 z" fill="url('#linearGradientSkabbzgl6y')" fill-rule="evenodd" stroke="none"></path>
        </g>
      </svg>
    </g>
    <g transform="matrix(0.4033,0,0,0.4033,524.3317,19.7409)">
      <svg width="41.79397445386894" height="36.490267941505834" viewBox="261.29773,62.925146058494164,41.79397445386894,36.490267941505834">
        <defs>
          <linearGradient x1="0" y1="0.5" x2="1" y2="0.5" id="linearGradientSkabbzgl614">
            <stop offset="0%" stop-color="#8a25b1"></stop>
            <stop offset="100%" stop-color="#000000"></stop>
          </linearGradient>
        </defs>
        <g></g>
        <g>
          <path d="m 294.51009,68.310984 -28.21236,26.10443 31.28066,-22.666105 c 1.62769,-2.264513 -0.95011,-4.807699 -3.0683,-3.438325 z" style="" fill="url('#linearGradientSkabbzgl614')" fill-rule="evenodd" stroke="none"></path>
        </g>
      </svg>
    </g>
    <g transform="matrix(0.4033,0,0,0.4033,540.5252,18.7491)">
      <svg width="45.33687849150442" height="31.361048226797152" viewBox="301.7459315084956,59.62608177320284,45.33687849150442,31.361048226797152">
        <defs>
          <linearGradient x1="0" y1="0.5" x2="1" y2="0.5" id="linearGradientSkabbzgl61a">
            <stop offset="0%" stop-color="#8a25b1"></stop>
            <stop offset="100%" stop-color="#000000"></stop>
          </linearGradient>
        </defs>
        <g></g>
        <g>
          <path style="" d="M 309.99266,64.830558 342.08281,85.98713 307.52586,68.723043 c -1.97505,-1.968907 0.15371,-4.898269 2.4668,-3.892485 z" fill="url('#linearGradientSkabbzgl61a')" fill-rule="evenodd" stroke="none"></path>
        </g>
      </svg>
    </g>
    <g transform="matrix(0.4033,0,0,0.4033,538.5744,5.5475)">
      <svg width="15.773289999999974" height="32.71523778186525" viewBox="297.82980000000003,27.881532000000007,15.773289999999974,32.71523778186525">
        <defs>
          <linearGradient x1="0" y1="0.5" x2="1" y2="0.5" id="linearGradientSkabbzgl61g">
            <stop offset="0%" stop-color="#8a25b1"></stop>
            <stop offset="100%" stop-color="#000000"></stop>
          </linearGradient>
        </defs>
        <g></g>
        <g>
          <path d="m 305.43649,54.683956 3.1666,-21.802424 -5.77329,21.375729 c 0.0907,1.595913 2.15611,1.800413 2.60669,0.426695 z" style="" fill="url('#linearGradientSkabbzgl61g')" fill-rule="evenodd" stroke="none"></path>
        </g>
      </svg>
    </g>
    <g transform="matrix(0.4033,0,0,0.4033,542.3481,14.1688)">
      <svg width="31.57798961494842" height="19.524037048386937" viewBox="306.35446038505154,49.010788999999995,31.57798961494842,19.524037048386937">
        <defs>
          <linearGradient x1="0" y1="0.5" x2="1" y2="0.5" id="linearGradientSkabbzgl61m">
            <stop offset="0%" stop-color="#8a25b1"></stop>
            <stop offset="100%" stop-color="#000000"></stop>
          </linearGradient>
        </defs>
        <g></g>
        <g>
          <path style="" d="m 313.04087,63.481694 19.89158,-9.470905 -20.98393,7.065962 c -1.27702,0.961432 -0.30036,2.79287 1.09235,2.404943 z" fill="url('#linearGradientSkabbzgl61m')" fill-rule="evenodd" stroke="none"></path>
        </g>
      </svg>
    </g>
    <g transform="matrix(0.4033,0,0,0.4033,530.7596,9.3541)">
      <svg width="24.915690022144133" height="28.43871284343436" viewBox="276.47756000000004,35.828328,24.915690022144133,28.43871284343436">
        <defs>
          <linearGradient x1="0" y1="0.5" x2="1" y2="0.5" id="linearGradientSkabbzgl61s">
            <stop offset="0%" stop-color="#8a25b1"></stop>
            <stop offset="100%" stop-color="#000000"></stop>
          </linearGradient>
        </defs>
        <g></g>
        <g>
          <path d="m 294.12166,58.869943 -12.6441,-18.041615 14.7795,16.48694 c 0.63764,1.465804 -1.11456,2.578393 -2.1354,1.554675 z" style="" fill="url('#linearGradientSkabbzgl61s')" fill-rule="evenodd" stroke="none"></path>
        </g>
      </svg>
    </g>
    <g transform="matrix(0.4033,0,0,0.4033,525.1465,19.7737)">
      <svg width="32.523084160730946" height="16.607783654255485" viewBox="264.30406,61.746829345744516,32.523084160730946,16.607783654255485">
        <defs>
          <linearGradient x1="0" y1="0.5" x2="1" y2="0.5" id="linearGradientSkabbzgl61y">
            <stop offset="0%" stop-color="#8a25b1"></stop>
            <stop offset="100%" stop-color="#000000"></stop>
          </linearGradient>
        </defs>
        <g></g>
        <g>
          <path style="" d="m 290.32499,66.759691 -21.02093,6.594922 21.76609,-4.060807 c 1.39897,-0.773322 0.68814,-2.723385 -0.74516,-2.534115 z" fill="url('#linearGradientSkabbzgl61y')" fill-rule="evenodd" stroke="none"></path>
        </g>
      </svg>
    </g>
    <g transform="matrix(0.4033,0,0,0.4033,540.9613,21.1524)">
      <svg width="23.758572010157422" height="29.295872978593508" viewBox="301.3678479898426,66.12771902140649,23.758572010157422,29.295872978593508">
        <defs>
          <linearGradient x1="0" y1="0.5" x2="1" y2="0.5" id="linearGradientSkabbzgl624">
            <stop offset="0%" stop-color="#8a25b1"></stop>
            <stop offset="100%" stop-color="#000000"></stop>
          </linearGradient>
        </defs>
        <g></g>
        <g>
          <path d="m 308.69909,71.587756 11.42733,18.835836 -13.66059,-17.425303 c -0.53962,-1.504646 1.2821,-2.499318 2.23326,-1.410533 z" style="" fill="url('#linearGradientSkabbzgl624')" fill-rule="evenodd" stroke="none"></path>
        </g>
      </svg>
    </g>
    <g transform="matrix(0.4033,0,0,0.4033,535.3727,22.5475)">
      <svg width="16.092680157722782" height="32.64435353176776" viewBox="288.24096000000003,69.78432146823224,16.092680157722782,32.64435353176776">
        <defs>
          <linearGradient x1="0" y1="0.5" x2="1" y2="0.5" id="linearGradientSkabbzgl62a">
            <stop offset="0%" stop-color="#8a25b1"></stop>
            <stop offset="100%" stop-color="#000000"></stop>
          </linearGradient>
        </defs>
        <g></g>
        <g>
          <path style="" d="m 299.32503,76.254242 -6.08407,21.174433 3.53265,-21.858022 c 0.73924,-1.417283 2.70593,-0.75387 2.55142,0.683589 z" fill="url('#linearGradientSkabbzgl62a')" fill-rule="evenodd" stroke="none"></path>
        </g>
      </svg>
    </g>
    <g transform="matrix(0.4033,0,0,0.4033,500.5005,50.9015)">
      <svg width="60.757480000000214" height="60.75747999999999" viewBox="201.0463099999999,138.9833,60.757480000000214,60.75747999999999">
        <defs>
          <linearGradient x1="0" y1="0.5" x2="1" y2="0.5" id="linearGradientSkabbzgl62g">
            <stop offset="0%" stop-color="#8a25b1"></stop>
            <stop offset="100%" stop-color="#000000"></stop>
          </linearGradient>
        </defs>
        <g></g>
        <g>
          <path style="opacity: 1; fill-opacity: 1; fill-rule: evenodd; stroke-width: 4.08848; stroke-linecap: round; stroke-linejoin: round; stroke-miterlimit: 4; stroke-dasharray: none; stroke-dashoffset: 0; stroke-opacity: 1;" d="m 256.80379,169.36204 a 25.378738,25.378738 0 0 1 -25.37874,25.37874 25.378738,25.378738 0 0 1 -25.37874,-25.37874 25.378738,25.378738 0 0 1 25.37874,-25.37874 25.378738,25.378738 0 0 1 25.37874,25.37874 z" stroke="none" fill="url('#linearGradientSkabbzgl62g')"></path>
        </g>
      </svg>
    </g>
    <g transform="matrix(0.4033,0,0,0.4033,479.007,31.0457)">
      <svg width="117.24542011811252" height="94.27711046669421" viewBox="148.39922287511115,91.53231316343829,117.24542011811252,94.27711046669421">
        <defs>
          <linearGradient x1="0" y1="0.5" x2="1" y2="0.5" id="linearGradientSkabbzgl62m">
            <stop offset="0%" stop-color="#8a25b1"></stop>
            <stop offset="100%" stop-color="#000000"></stop>
          </linearGradient>
        </defs>
        <g></g>
        <g>
          <path style="opacity: 1; fill-opacity: 1; fill-rule: evenodd; stroke-width: 3.5; stroke-linecap: round; stroke-linejoin: round; stroke-miterlimit: 4; stroke-dasharray: none; stroke-dashoffset: 0; stroke-opacity: 1;" d="m 180.95075,97.454087 c -13.60119,-3.79567 -25.25456,4.750963 -26.97455,14.307863 -2.78181,15.45672 4.61746,33.39594 19.55863,27.79983 1.96255,1.44341 5.56371,1.77101 8.1809,0.21418 5.07597,-4.3145 -1.44848,-12.73016 -4.48669,-6.35663 -1.85726,1.10944 -4.53002,-2.84117 -5.30304,1.20004 -6.64867,0.31806 -13.7592,-4.0909 -11.99203,-14.447 1.94304,-11.38678 20.49776,-17.17558 26.35935,17.69701 0.22081,1.31369 0.30364,17.25306 -9.1023,25.43352 -3.45168,3.00197 -12.72398,15.38177 -18.06246,13.55252 -2.84117,-0.97353 -0.56669,5.82192 7.55078,3.44719 24.82256,-7.26173 60.32073,-53.75463 88.73622,-52.3961 1.73193,0.0828 5.9837,8.26628 5.11284,0.80142 -0.87086,-7.46486 -38.49738,-6.15679 -39.266,-8.4991 -9.11396,-27.773994 -18.18899,-16.58099 -40.31165,-22.754743 z" stroke="none" fill="url('#linearGradientSkabbzgl62m')"></path>
        </g>
      </svg>
    </g>
    <g transform="matrix(0.4033,0,0,0.4033,496.5252,177.3376)">
      <svg width="45.67368232810779" height="38.530430507180256" viewBox="191.5823542937637,452.89431536420085,45.67368232810779,38.530430507180256">
        <defs>
          <linearGradient x1="0" y1="0.5" x2="1" y2="0.5" id="linearGradientSkabbzgl62s">
            <stop offset="0%" stop-color="#8a25b1"></stop>
            <stop offset="100%" stop-color="#000000"></stop>
          </linearGradient>
        </defs>
        <g></g>
        <g>
          <path style="" d="m 225.82132,457.92526 c -2.40419,0.17771 -4.98618,-0.15388 -7.18341,1.05491 -2.08076,0.43966 -1.24381,3.0055 -0.89158,4.43044 0.75111,3.57265 1.84931,7.20125 1.33957,10.88854 -0.86595,2.14737 -3.42331,2.4267 -5.32319,3.1628 -3.43563,1.07959 -7.07858,2.03335 -10.69755,1.62727 -1.92349,-0.7504 -2.2108,-3.68688 -0.64683,-4.94178 1.43216,-1.18918 1.45431,-4.35991 -1.0323,-3.96814 -2.32975,0.36528 -3.31081,2.83093 -4.31977,4.66043 -1.25212,2.60488 0.22555,5.40144 1.0569,7.89281 0.72351,2.07496 3.13247,2.567 5.02035,3.01843 6.89114,1.68047 13.96399,-0.12157 20.6918,-1.7097 2.4309,-0.73159 5.14257,-0.42986 7.41986,-1.64778 1.61307,-1.30558 0.82669,-3.5181 0.68318,-5.26038 -0.74995,-5.81405 -1.77966,-11.59202 -2.92909,-17.33743 -0.1676,-1.93495 -1.60124,-1.97138 -3.18794,-1.87042 z" fill="url('#linearGradientSkabbzgl62s')" fill-opacity="1" fill-rule="evenodd" stroke="none"></path>
        </g>
      </svg>
    </g>
    <g transform="matrix(0.4033,0,0,0.4033,522.5252,174.9344)">
      <svg width="45.44251648603375" height="40.119844947803244" viewBox="257.20839685072633,448.0271991937157,45.44251648603375,40.119844947803244">
        <defs>
          <linearGradient x1="0" y1="0.5" x2="1" y2="0.5" id="linearGradientSkabbzgl62y">
            <stop offset="0%" stop-color="#8a25b1"></stop>
            <stop offset="100%" stop-color="#000000"></stop>
          </linearGradient>
        </defs>
        <g></g>
        <g>
          <path style="" d="m 264.90863,453.76369 c 2.62957,-0.45111 5.38773,-1.19825 8.01907,-0.34988 1.78995,1.46562 0.75942,3.95148 0.99515,5.90627 0.062,3.14296 -0.19645,10.46937 1.24104,13.3747 1.72216,1.77027 4.38876,1.35453 6.61109,1.74572 3.31263,0.24045 6.75366,0.35291 9.92179,-0.80946 1.67883,-1.25386 1.18325,-4.20726 -0.68701,-5.02 -1.80306,-0.77399 -1.67061,-4.28989 0.63576,-3.98408 2.10395,0.0588 3.38804,1.97398 4.72791,3.33039 1.55334,1.88259 1.39048,4.48303 1.05171,6.74283 -0.0185,1.91763 -0.99446,3.86755 -2.80782,4.65575 -5.46515,3.19204 -11.96431,3.71028 -18.15912,3.6014 -3.04467,-0.0337 -6.09633,-0.13198 -9.12948,0.1817 -1.53801,0.0715 -3.58757,-0.3132 -4.01279,-2.05663 -0.53954,-1.82738 -0.17975,-3.76899 -0.54167,-5.62678 -0.37493,-5.43394 -0.62861,-14.88305 -0.55228,-20.33123 0.33047,-1.17678 1.75402,-1.05522 2.68665,-1.3607 z" fill="url('#linearGradientSkabbzgl62y')" fill-opacity="1" fill-rule="evenodd" stroke="none"></path>
        </g>
      </svg>
    </g>
    <g transform="matrix(1.2844,0,0,1.2844,116.2446,75.6738)">
      <svg width="277.4" height="177" style="overflow: visible;">
        <defs>
          <linearGradient x1="0" y1="0.5" x2="1" y2="0.5" id="linearGradientSkabbzgl63a">
            <stop offset="0%" stop-color="#000000"></stop>
            <stop offset="100%" stop-color="#8a25b1"></stop>
          </linearGradient>
        </defs>
        <g transform="matrix(1,0,0,1,0,87.75)">
          <path d="M 4-2.1L 4-74.9L 11-74.9L 11-37.6Q 12.7-42.2  17.3-46.3Q 21.9-50.4  27.7-50.4L 27.7-50.4Q 48-50.4  48-26.6L 48-26.6Q 48 0.4  21.8 0.4L 21.8 0.4Q 14.1 0.4  4-2.1L 4-2.1ZM 27.6-49.6L 27.6-49.6Q 21.4-49.6  16.4-44.25Q 11.4-38.9  11-34.6L 11-34.6L 11-2.7Q 17.1-0.4  21.7-0.4L 21.7-0.4Q 41-0.4  41-26.7L 41-26.7Q 41-49.6  27.6-49.6ZM 71.8 0L 68.7 0Q 59.9 0  57.6-4.6L 57.6-4.6Q 57.1-5.6  57.1-6.4L 57.1-6.4L 57.1-74.9L 64.1-74.9L 64.1-7.1Q 64.1-4.2  65.25-2.65Q 66.4-1.1  67.6-1L 67.6-1L 68.7-0.8L 71.8-0.8L 71.8 0ZM 93.59999999999997 0L 87.49999999999997 0Q 83.39999999999996 0  81.24999999999997-1.8Q 79.09999999999997-3.6  78.99999999999997-5.4L 78.99999999999997-5.4L 78.89999999999996-7.1L 78.89999999999996-50L 85.89999999999996-50L 85.89999999999996-7.1Q 85.89999999999996-4.2  87.04999999999997-2.65Q 88.19999999999997-1.1  89.29999999999997-1L 89.29999999999997-1L 90.49999999999997-0.8L 93.59999999999997-0.8L 93.59999999999997 0ZM 79.49999999999997-61.2Q 78.29999999999997-62.4  78.29999999999997-64.2Q 78.29999999999997-66  79.49999999999997-67.25Q 80.69999999999997-68.5  82.49999999999997-68.5Q 84.29999999999997-68.5  85.54999999999997-67.25Q 86.79999999999997-66  86.79999999999997-64.2Q 86.79999999999997-62.4  85.54999999999997-61.2Q 84.29999999999997-60  82.49999999999997-60Q 80.69999999999997-60  79.49999999999997-61.2ZM 130.29999999999995-47.2L 129.79999999999995-46.5Q 128.19999999999996-47.8  124.64999999999996-48.7Q 121.09999999999997-49.6  119.29999999999997-49.6Q 117.49999999999997-49.6  117.19999999999996-49.6L 117.19999999999996-49.6Q 111.79999999999997-49.5  109.39999999999996-46.85Q 106.99999999999997-44.2  106.99999999999997-40.9Q 106.99999999999997-37.6  109.09999999999997-35.35Q 111.19999999999996-33.1  114.34999999999997-31.85Q 117.49999999999997-30.6  121.14999999999996-29Q 124.79999999999997-27.4  127.94999999999996-25.75Q 131.09999999999997-24.1  133.19999999999996-20.95Q 135.29999999999995-17.8  135.29999999999995-13.1Q 135.29999999999995-8.4  131.99999999999997-5.1Q 128.69999999999996-1.8  124.64999999999996-0.7Q 120.59999999999997 0.4  115.89999999999996 0.4L 115.89999999999996 0.4Q 105.69999999999996 0.4  100.59999999999997-4.1L 100.59999999999997-4.1L 101.19999999999996-4.7Q 103.19999999999996-2.8  107.14999999999996-1.6Q 111.09999999999997-0.4  114.79999999999997-0.4L 114.79999999999997-0.4Q 120.69999999999996-0.4  124.54999999999997-3.65Q 128.39999999999998-6.9  128.39999999999998-11.75Q 128.39999999999998-16.6  125.49999999999997-19.55Q 122.59999999999997-22.5  118.44999999999996-24.15Q 114.29999999999997-25.8  110.09999999999997-27.45Q 105.89999999999996-29.1  102.99999999999997-32.05Q 100.09999999999997-35  100.09999999999997-38.9Q 100.09999999999997-42.8  101.89999999999996-45.25Q 103.69999999999996-47.7  106.69999999999996-48.7L 106.69999999999996-48.7Q 111.79999999999997-50.4  116.89999999999996-50.4L 116.89999999999996-50.4Q 125.49999999999997-50.4  130.29999999999995-47.2L 130.29999999999995-47.2ZM 171.49999999999994-47.2L 170.99999999999994-46.5Q 169.39999999999995-47.8  165.84999999999997-48.7Q 162.29999999999995-49.6  160.49999999999994-49.6Q 158.69999999999996-49.6  158.39999999999995-49.6L 158.39999999999995-49.6Q 152.99999999999994-49.5  150.59999999999997-46.85Q 148.19999999999996-44.2  148.19999999999996-40.9Q 148.19999999999996-37.6  150.29999999999995-35.35Q 152.39999999999995-33.1  155.54999999999995-31.85Q 158.69999999999996-30.6  162.34999999999997-29Q 165.99999999999994-27.4  169.14999999999995-25.75Q 172.29999999999995-24.1  174.39999999999995-20.95Q 176.49999999999994-17.8  176.49999999999994-13.1Q 176.49999999999994-8.4  173.19999999999996-5.1Q 169.89999999999995-1.8  165.84999999999997-0.7Q 161.79999999999995 0.4  157.09999999999997 0.4L 157.09999999999997 0.4Q 146.89999999999995 0.4  141.79999999999995-4.1L 141.79999999999995-4.1L 142.39999999999995-4.7Q 144.39999999999995-2.8  148.34999999999997-1.6Q 152.29999999999995-0.4  155.99999999999994-0.4L 155.99999999999994-0.4Q 161.89999999999995-0.4  165.74999999999994-3.65Q 169.59999999999997-6.9  169.59999999999997-11.75Q 169.59999999999997-16.6  166.69999999999996-19.55Q 163.79999999999995-22.5  159.64999999999995-24.15Q 155.49999999999994-25.8  151.29999999999995-27.45Q 147.09999999999997-29.1  144.19999999999996-32.05Q 141.29999999999995-35  141.29999999999995-38.9Q 141.29999999999995-42.8  143.09999999999997-45.25Q 144.89999999999995-47.7  147.89999999999995-48.7L 147.89999999999995-48.7Q 152.99999999999994-50.4  158.09999999999997-50.4L 158.09999999999997-50.4Q 166.69999999999996-50.4  171.49999999999994-47.2L 171.49999999999994-47.2ZM 190.59999999999994-54.7L 190.59999999999994-54.7L 190.59999999999994-50L 198.49999999999994-50L 198.49999999999994-49.2L 190.59999999999994-49.2L 190.59999999999994 0L 183.59999999999994 0L 183.59999999999994-49.2L 181.49999999999994-49.2L 181.49999999999994-50L 183.59999999999994-50L 183.59999999999994-54.7Q 183.59999999999994-65.6  188.29999999999995-70.25Q 192.99999999999994-74.9  203.49999999999994-75L 203.49999999999994-75L 203.49999999999994-74.2Q 196.59999999999994-74.1  193.59999999999994-69.55Q 190.59999999999994-65  190.59999999999994-54.7ZM 212.49999999999994-50L 212.49999999999994-11.5Q 212.49999999999994-3.6  216.69999999999993-1.4L 216.69999999999993-1.4Q 218.69999999999993-0.4  221.79999999999995-0.4L 221.79999999999995-0.4Q 228.09999999999994-0.4  233.04999999999995-5.2Q 237.99999999999994-10  238.39999999999995-14.1L 238.39999999999995-14.1L 238.39999999999995-50L 245.39999999999995-50L 245.39999999999995-7.1Q 245.39999999999995-4.2  246.54999999999995-2.65Q 247.69999999999993-1.1  248.89999999999995-1L 248.89999999999995-1L 249.99999999999994-0.8L 253.09999999999994-0.8L 253.09999999999994 0L 246.99999999999994 0Q 242.89999999999995 0  240.74999999999994-1.8Q 238.59999999999994-3.6  238.49999999999994-5.4L 238.49999999999994-5.4L 238.39999999999995-7.1L 238.39999999999995-11.4Q 236.59999999999994-7.1  231.99999999999994-3.35Q 227.39999999999995 0.4  221.94999999999993 0.4Q 216.49999999999994 0.4  213.04999999999995-0.65Q 209.59999999999994-1.7  208.09999999999994-3.6L 208.09999999999994-3.6Q 205.49999999999994-6.7  205.49999999999994-11.6L 205.49999999999994-11.6L 205.49999999999994-50L 212.49999999999994-50ZM 273.8999999999999 0L 270.79999999999995 0Q 261.99999999999994 0  259.69999999999993-4.6L 259.69999999999993-4.6Q 259.19999999999993-5.6  259.19999999999993-6.4L 259.19999999999993-6.4L 259.19999999999993-74.9L 266.19999999999993-74.9L 266.19999999999993-7.1Q 266.19999999999993-4.2  267.3499999999999-2.65Q 268.49999999999994-1.1  269.69999999999993-1L 269.69999999999993-1L 270.79999999999995-0.8L 273.8999999999999-0.8L 273.8999999999999 0Z" data-textpath="blissful" data-text-anchor="middle" data-font-size="100" data-letterspacing="0" data-side="left" data-offset="0.5" data-dx="0" data-dy="0" data-xmlspace="preserve" data-href="" data-font="Italiana" data-font-src="/Content/clientfonts/italiana.woff" data-font-scale="contain" transform="translate(0,0)" data-x="0" data-y="0" fill="url('#linearGradientSkabbzgl63a')"></path>
        </g>
      </svg>
    </g>
    <g transform="matrix(1.2333,0,0,1.2333,194.1407,203.6673)">
      <svg width="290.7" height="177" style="overflow: visible;">
        <defs>
          <linearGradient x1="0" y1="0.5" x2="1" y2="0.5" id="linearGradientSkabbzgl63d">
            <stop offset="0%" stop-color="#000000"></stop>
            <stop offset="100%" stop-color="#8a25b1"></stop>
          </linearGradient>
        </defs>
        <g transform="matrix(1,0,0,1,0,87.75)">
          <path d="M 72.9-49.4L 72.9-49.4L 73.5-50Q 73.9-49.8  74.55-48.8Q 75.2-47.8  75.35-47Q 75.5-46.2  75.5-45.5L 75.5-45.5Q 75.5-42.8  74.3-40L 74.3-40L 56.1 0L 55.1 0L 40.7-38.7L 23.1 0L 22.1 0L 3.5-50L 10.5-50L 25.8-8.6L 40.2-39.9L 36.5-50L 43.5-50L 58.8-8.6L 73.3-40Q 74.5-42.1  74.5-45Q 74.5-47.9  72.9-49.4ZM 97.29999999999998 0L 91.19999999999999 0Q 87.09999999999998 0  84.94999999999999-1.8Q 82.79999999999998-3.6  82.69999999999999-5.4L 82.69999999999999-5.4L 82.59999999999998-7.1L 82.59999999999998-50L 89.59999999999998-50L 89.59999999999998-7.1Q 89.59999999999998-4.2  90.74999999999999-2.65Q 91.89999999999999-1.1  92.99999999999999-1L 92.99999999999999-1L 94.19999999999999-0.8L 97.29999999999998-0.8L 97.29999999999998 0ZM 83.19999999999999-61.2Q 81.99999999999999-62.4  81.99999999999999-64.2Q 81.99999999999999-66  83.19999999999999-67.25Q 84.39999999999999-68.5  86.19999999999999-68.5Q 87.99999999999999-68.5  89.24999999999999-67.25Q 90.49999999999999-66  90.49999999999999-64.2Q 90.49999999999999-62.4  89.24999999999999-61.2Q 87.99999999999999-60  86.19999999999999-60Q 84.39999999999999-60  83.19999999999999-61.2ZM 135-49.2L 107.3-49.2L 107.3-50L 142-50L 142-49.2L 111.8-0.8L 135.7-0.8Q 142.6-0.8  144-4.8L 144-4.8L 144.6-4.5Q 144.6-4.1  143.9-3.15Q 143.2-2.2  142.3-1.6L 142.3-1.6Q 139.9 0  135.7 0L 135.7 0L 104.8 0L 104.8-0.8L 135-49.2ZM 196.50000000000003 0L 193.40000000000003 0Q 186.60000000000002 0  184.10000000000002-2.6L 184.10000000000002-2.6Q 181.8-4.8  181.8-6.4L 181.8-6.4L 181.8-8.5Q 176.90000000000003 0.4  166.10000000000002 0.4L 166.10000000000002 0.4Q 153.50000000000003 0.4  151.8-11L 151.8-11Q 151.60000000000002-12.2  151.60000000000002-13.45Q 151.60000000000002-14.7  152.00000000000003-16.2Q 152.40000000000003-17.7  154.3-19.5L 154.3-19.5Q 158.10000000000002-23.1  171.00000000000003-23.9L 171.00000000000003-23.9Q 174.20000000000002-24.2  176.90000000000003-24.2Q 179.60000000000002-24.2  181.8-24L 181.8-24L 181.8-40.6Q 181.60000000000002-40.7  181.8-41.55Q 182.00000000000003-42.4  181.45000000000002-43.75Q 180.90000000000003-45.1  180.00000000000003-46.4Q 179.10000000000002-47.7  176.8-48.65Q 174.50000000000003-49.6  170.8-49.6Q 167.10000000000002-49.6  162.15000000000003-48.25Q 157.20000000000002-46.9  154.90000000000003-45.6L 154.90000000000003-45.6L 154.50000000000003-46.3Q 163.40000000000003-50.4  172.60000000000002-50.4L 172.60000000000002-50.4Q 182.90000000000003-50.4  186.20000000000002-46.7L 186.20000000000002-46.7Q 188.8-43.8  188.8-40.6L 188.8-40.6L 188.8-7.1Q 188.8-4.2  189.95000000000002-2.65Q 191.10000000000002-1.1  192.3-1L 192.3-1L 193.40000000000003-0.8L 196.50000000000003-0.8L 196.50000000000003 0ZM 167.70000000000002-0.4L 167.70000000000002-0.4Q 173.00000000000003-0.4  177.25000000000003-4.05Q 181.50000000000003-7.7  181.8-11.1L 181.8-11.1L 181.8-23.2Q 179.10000000000002-23.4  176.35000000000002-23.4Q 173.60000000000002-23.4  170.90000000000003-23.1L 170.90000000000003-23.1Q 163.3-22.2  161.00000000000003-19.7Q 158.70000000000002-17.2  158.70000000000002-12.8L 158.70000000000002-12.8Q 158.70000000000002-12  158.8-11L 158.8-11Q 159.70000000000002-0.4  167.70000000000002-0.4ZM 221.10000000000002-45.7L 221.10000000000002-45.7L 221.10000000000002-47.8Q 216.60000000000002-46  212.90000000000003-40.55Q 209.20000000000002-35.1  209.00000000000003-30.3L 209.00000000000003-30.3L 209.00000000000003 0L 202.00000000000003 0L 202.00000000000003-50L 209.00000000000003-50L 209.00000000000003-34.1Q 210.60000000000002-39.9  215.10000000000002-45.05Q 219.60000000000002-50.2  225.30000000000004-50.4L 225.30000000000004-50.4L 225.70000000000002-50.4Q 227.70000000000002-50.4  229.05000000000004-49.05Q 230.40000000000003-47.7  230.40000000000003-45.7Q 230.40000000000003-43.7  229.05000000000004-42.4Q 227.70000000000002-41.1  225.70000000000002-41.1Q 223.70000000000002-41.1  222.40000000000003-42.4Q 221.10000000000002-43.7  221.10000000000002-45.7ZM 234.9-23.2L 234.9-23.2Q 234.9-36.2  241.20000000000002-43.3Q 247.5-50.4  260.1-50.4L 260.1-50.4Q 266-50.4  272-47.4L 272-47.4L 272-74.9L 279-74.9L 279-7.1Q 279-4.2  280.15-2.65Q 281.3-1.1  282.5-1L 282.5-1L 283.6-0.8L 286.7-0.8L 286.7 0L 280.6 0Q 276.5 0  274.35-1.8Q 272.2-3.6  272.1-5.4L 272.1-5.4L 272-7.1L 272-8.7Q 270.1-5.2  265.7-2.5Q 261.3 0.2  255.3 0.2L 255.3 0.2Q 234.9-0.3  234.9-23.2ZM 255.4-0.6L 255.4-0.6Q 262.1-0.6  266.9-4.2Q 271.7-7.8  272-11.3L 272-11.3L 272-46.5Q 264.9-49.6  259.8-49.6L 259.8-49.6Q 250.9-49.6  246.4-42.65Q 241.9-35.7  241.9-23.2L 241.9-23.2Q 241.9-0.6  255.4-0.6Z" data-textpath="wizard" data-text-anchor="middle" data-font-size="100" data-letterspacing="0" data-side="left" data-offset="0.5" data-dx="0" data-dy="0" data-xmlspace="preserve" data-href="" data-font="Italiana" data-font-src="/Content/clientfonts/italiana.woff" data-font-scale="contain" transform="translate(0,0)" data-x="0" data-y="0" fill="url('#linearGradientSkabbzgl63d')"></path>
        </g>
      </svg>
    </g>
  </g>
</svg>